<?xml version="1.0" encoding="UTF-8" standalone="no"?>
<!-- Created with Inkscape (http://www.inkscape.org/) -->

<svg
   version="1.1"
   id="svg1"
   width="1706.6667"
   height="1336"
   viewBox="0 0 1706.6667 1336"
   sodipodi:docname="826.svg"
   inkscape:version="1.3.2 (091e20ef0f, 2023-11-25)"
   xmlns:inkscape="http://www.inkscape.org/namespaces/inkscape"
   xmlns:sodipodi="http://sodipodi.sourceforge.net/DTD/sodipodi-0.dtd"
   xmlns="http://www.w3.org/2000/svg"
   xmlns:svg="http://www.w3.org/2000/svg">
  <defs
     id="defs1" />
  <sodipodi:namedview
     id="namedview1"
     pagecolor="#ffffff"
     bordercolor="#000000"
     borderopacity="0.25"
     inkscape:showpageshadow="2"
     inkscape:pageopacity="0.0"
     inkscape:pagecheckerboard="0"
     inkscape:deskcolor="#d1d1d1"
     showgrid="false"
     inkscape:zoom="0.19532978"
     inkscape:cx="1443.7123"
     inkscape:cy="110.07026"
     inkscape:window-width="1920"
     inkscape:window-height="1011"
     inkscape:window-x="0"
     inkscape:window-y="0"
     inkscape:window-maximized="1"
     inkscape:current-layer="layer1" />
  <g
     inkscape:groupmode="layer"
     id="layer1"
     inkscape:label="Layer 1">
    <path
       style="fill:#ffff00;stroke-width:34.2"
       d="m 1479.6206,140.95563 c 2.5555,0 23.8332,-2.54244 23.8332,-2.54244 l 12.1463,6.28646 c 0,0 5.7194,9.62125 5.7194,11.11559 0,1.49434 -0.4038,12.69264 -0.4038,12.69264 0,0 -14.2054,-1.35611 -15.9719,-1.35611 -1.7664,0 -12.9832,-2.77536 -14.2218,-4.6822 -1.2386,-1.90684 -10.6628,-13.56008 -10.6628,-13.56008 l -1.2527,-4.25882 z"
       id="path3" />
    <path
       id="path2"
       style="fill:#d38d5f"
       d="M 1353.334 0.66601562 C 1344.7515 0.666192 1342.3251 1.2253642 1336.2227 4.6054688 C 1327.273 9.5627098 1323.3997 14.130084 1317.6621 26.496094 C 1313.2142 36.082171 1312.8979 36.41412 1304.8848 39.830078 C 1288.191 46.946512 1260.3188 61.412647 1248.666 69.009766 C 1226.2906 83.597628 1208.7623 99.028156 1168 140.01758 C 1145.6333 162.50886 1123.1798 184.38655 1118.1035 188.63477 C 1107.385 197.6047 1090.7702 208.62435 1079.334 214.3457 C 1067.8976 220.06717 957.02258 261.97918 946.66602 264.49609 C 917.61584 271.5561 896.43275 271.16804 810.66602 261.99805 C 709.73993 251.20725 666.87269 248.8105 591.19336 249.72656 C 520.31935 250.58445 501.03877 252.70957 454.82031 264.76758 C 422.13444 273.29505 395.63333 284.92341 369.33398 302.27734 C 314.40318 338.52409 274.42769 392.12453 255.44922 454.98047 C 240.07605 505.89576 240.21553 555.74474 256.04883 670.66602 C 268.96557 764.41828 271.23892 794.35573 271.29102 871.33398 C 271.33584 937.54081 270.67403 949.11559 264.56055 988.91797 C 249.4593 1087.2359 207.61873 1164.9812 152.33008 1197.4609 C 132.87982 1208.8872 110.3906 1211.9004 96 1205.0059 C 91.966674 1203.0735 87.743117 1200.7063 86.613281 1199.7461 C 82.126822 1195.9331 77.483329 1188.3052 75.460938 1181.4238 C 70.818184 1165.6263 73.391804 1149.8165 85.490234 1119.8027 C 92.834741 1101.5826 93.806066 1098.0881 94.328125 1088 C 94.8717 1077.4961 94.632449 1076.1314 91.066406 1069.3574 C 83.703041 1055.37 69.062299 1048.5037 53.521484 1051.748 C 39.215237 1054.7348 33.418421 1060.8537 20.671875 1086.4219 C 7.820583 1112.1999 1.6646802 1134.372 0.42773438 1159.334 C -2.0154344 1208.638 18.024687 1249.5515 53.324219 1267.3281 C 71.53268 1276.4977 79.134046 1278 107.33398 1278 C 129.61606 1278 134.01687 1277.6306 143.87109 1274.9375 C 177.52241 1265.7406 205.81674 1248.9229 236.50977 1219.875 C 318.91593 1141.886 358.69346 1015.2674 358.66016 831.05078 C 358.65014 775.54943 353.53786 727.77173 340.73047 663.49414 C 336.7277 643.40513 335.28943 633.57417 336.2207 632.66602 C 337.13986 631.76965 338.30979 632.35819 339.79297 634.45898 C 363.48599 668.01849 391.35869 726.57942 403.40039 768.10547 C 414.3725 805.94301 418.0333 832.33651 417.9082 872.66602 C 417.75569 921.83728 411.00365 953.6143 391.49023 996.99414 C 382.75551 1016.4121 380 1027.3666 380 1042.666 C 380 1057.28 382.33632 1067.048 390.68555 1087.334 C 393.70376 1094.6674 402.06643 1115.6667 409.26953 1134 C 436.21587 1202.5835 444.92291 1217.6867 462.47852 1226.3047 L 470 1229.998 L 510.98438 1229.5566 C 539.78995 1229.2471 553.37469 1229.5793 556.69727 1230.6758 C 559.93751 1231.7452 563.10875 1234.5189 566.78125 1239.4902 C 569.72813 1243.4792 574.95948 1248.8054 578.4043 1251.3281 C 590.48434 1260.1746 592.02207 1260.4179 640 1261.0273 C 691.3315 1261.6793 703.52458 1260.9533 709.56445 1256.8828 C 716.61623 1252.1303 720.59114 1242.6636 721.11328 1229.375 C 721.67624 1215.0472 718.51582 1205.753 709.77344 1196.0293 C 702.03322 1187.4203 695.34671 1183.549 682 1179.9453 C 657.85256 1173.4254 645.1773 1163.7979 628.50391 1139.3184 C 614.43896 1118.6683 605.54837 1098.5806 599.66406 1074.1484 C 597.08653 1063.4461 596.74 1058.3502 596.75 1031.334 C 596.76047 1001.6691 596.94519 999.53427 602.39453 966 C 605.49288 946.93337 608.67227 923.83266 609.46094 914.66602 C 611.43733 891.69454 613.80832 880.07319 618.36133 871.03711 C 620.49638 866.7998 625.61318 856.77798 629.73242 848.76562 C 639.06859 830.60585 646.06018 811.00522 653.28711 782.72852 C 659.28594 759.25697 663.63068 746.49288 668.24023 738.79688 C 673.65314 729.75961 680.23247 722.60128 685.68359 719.82031 C 694.68758 715.22683 700.48491 716.63956 728.92383 730.35156 C 742.71607 737.0016 757.89936 744.04256 762.66602 745.99805 C 767.43267 747.95352 774.33333 750.92174 778 752.59375 C 781.66666 754.26576 789.01733 757.26735 794.33398 759.26562 C 802.23289 762.23444 804.00104 763.42709 804.00195 765.7832 C 804.00434 771.95251 806.78797 798.64649 808.74023 811.2207 C 812.94813 838.32292 817.06726 857.22556 832.00977 918 C 867.48517 1062.2864 867.85907 1073.869 839.30469 1144.1484 C 823.40263 1183.2874 821.7464 1191.8659 826.06055 1212.752 C 830.00637 1231.8549 837.66746 1244.441 850.61328 1253.0859 C 866.39752 1263.6263 887.17954 1265.5674 903.33398 1258.0117 C 925.92347 1247.4462 958.67042 1200.7568 972.0332 1160.0625 C 980.34432 1134.7523 983.12724 1116.975 983.21094 1088.666 C 983.30626 1056.4283 981.35104 1043.2479 966.00781 972.69531 C 955.32733 923.58327 954.35412 916.87383 954.87891 896.00781 C 955.31571 878.6405 955.50876 877.5782 959.79102 868.88477 C 967.52529 853.18338 975.38443 849.08283 1012.5566 841.35547 C 1042.2516 835.18248 1052.5777 831.38292 1083.5469 815.23438 C 1095.3976 809.055 1105.5089 804 1106.0176 804 C 1106.5263 804 1105.0763 806.12619 1102.7949 808.72461 C 1094.2601 818.44518 1086.0569 840.32998 1082.5527 862.73047 C 1080.7151 874.47695 1081.6501 967.25176 1083.9355 1000 C 1087.8296 1055.8 1096.9825 1144.7945 1103.3398 1188.666 C 1111.846 1247.3649 1132.3596 1302.2124 1152.1387 1319.1426 C 1159.8386 1325.7335 1172.1264 1331.9041 1181.6836 1333.9805 C 1187.7255 1335.2931 1202.6873 1335.8175 1236.3867 1335.8945 C 1288.4113 1336.0134 1288.3549 1336.0224 1297.1289 1326.0293 C 1305.2804 1316.7453 1307.6905 1306.0765 1304.7852 1292.1426 C 1301.1598 1274.755 1293.1176 1264.0017 1278.2617 1256.6797 C 1269.6932 1252.4566 1266.996 1251.8267 1253.0449 1250.7949 C 1239.7668 1249.8128 1236.5126 1249.1054 1231.3535 1246.082 C 1219.6574 1239.2276 1207.1871 1218.8554 1201.1035 1196.666 C 1198.5542 1187.3672 1198.1678 1182.4941 1198.0898 1158.666 C 1197.9931 1129.0179 1197.9787 1129.1383 1208.8203 1069.334 C 1231.5458 943.97592 1254.6114 851.25007 1292.2363 734 C 1323.6618 636.06949 1335.5329 587.68089 1346.7188 511.92383 C 1358.1911 434.22549 1364.9913 410.95694 1385.1152 380.52539 C 1394.5036 366.32829 1405.7359 353.47671 1418.9375 341.82812 C 1431.4142 330.81913 1447.0178 320 1450.418 320 C 1451.8749 320 1458.185 322.1416 1464.4395 324.75977 C 1476.2665 329.71072 1476.4397 329.86059 1494.166 350.17188 C 1500.5366 357.47148 1501.7534 358.22601 1512.166 361.33398 C 1527.9118 366.03388 1543.0485 365.92624 1553.625 361.04102 C 1564.9177 355.8249 1574.0289 346.6917 1577.5371 337.07031 C 1580.7239 328.33023 1584.569 322.66602 1587.3184 322.66602 C 1590.1314 322.66602 1609.0555 298.24403 1611.2383 291.79688 C 1612.3179 288.60812 1613.7276 282.63771 1614.3691 278.5293 C 1615.6143 270.55464 1620.6229 261.20363 1627.5566 253.9082 C 1629.8789 251.46477 1632.1751 248.21584 1632.6602 246.6875 C 1634.0033 242.45567 1627.6131 230.2001 1610.4043 204 C 1593.3804 178.0813 1578.666 153.1548 1578.666 150.23438 C 1578.666 144.37523 1570.2173 121.99119 1564.8359 113.5957 C 1557.0719 101.48315 1538.3531 82.622715 1524.4121 72.865234 L 1513.4902 65.222656 L 1513.7148 46.917969 C 1513.9123 30.708676 1513.6278 28.081836 1511.2363 23.972656 C 1507.4928 17.540311 1501.8334 17.179857 1489.5117 22.587891 C 1484.4053 24.829114 1473.727 28.231294 1465.7812 30.148438 L 1451.334 33.634766 L 1442.666 30.894531 C 1431.9313 27.50139 1416.9446 24.495179 1404.666 23.269531 C 1393.5513 22.160052 1392.0648 21.471992 1383.0488 13.273438 C 1372.5366 3.714279 1365.3543 0.66576862 1353.334 0.66601562 z M 1503.4531 138.41406 L 1515.5996 144.69922 C 1515.5996 144.69922 1521.3203 154.32011 1521.3203 155.81445 C 1521.3203 157.30879 1520.916 168.50781 1520.916 168.50781 C 1520.916 168.50781 1506.7099 167.15234 1504.9434 167.15234 C 1503.177 167.15234 1491.9613 164.37559 1490.7227 162.46875 C 1489.4841 160.56191 1480.0586 148.91016 1480.0586 148.91016 L 1478.8066 144.65039 L 1479.6211 140.95508 C 1482.1766 140.95508 1503.4531 138.41406 1503.4531 138.41406 z M 497.45898 972.00781 L 503.99609 985.12109 C 503.99609 985.12109 518.13932 1014.0074 519.89453 1017.0332 C 521.64975 1020.059 524.4668 1063.5312 524.4668 1063.5312 L 533.65234 1121.7617 L 542.00195 1166.9199 L 520.67188 1158.666 L 503.35742 1129.0176 L 488.32227 1086.3477 L 486.40234 1028.6035 L 497.45898 972.00781 z " />
    <path
       style="fill:#000000"
       d="m 1181.6836,1333.9812 c -9.5572,-2.0764 -21.8454,-8.248 -29.5453,-14.8389 -19.7791,-16.9302 -40.2918,-71.7767 -48.798,-130.4756 -6.3575,-43.8717 -15.511,-132.8665 -19.4051,-188.6667 -2.2854,-32.74831 -3.2192,-125.52367 -1.3816,-137.27017 3.5042,-22.40053 11.7065,-44.28485 20.2413,-54.00544 2.2814,-2.59842 3.7319,-4.72439 3.2232,-4.72439 -0.5087,0 -10.6208,5.05586 -22.4715,11.23524 -30.9692,16.14858 -41.2951,19.94801 -70.9901,26.121 -37.17233,7.72738 -45.03204,11.82796 -52.76633,27.52937 -4.28226,8.69345 -4.47459,9.75557 -4.91139,27.12292 -0.52479,20.86606 0.4489,27.57527 11.1294,76.68741 15.34325,70.55276 17.29841,83.73306 17.20309,115.97076 -0.0837,28.309 -2.86681,46.0852 -11.17795,71.3954 -13.36282,40.6943 -46.11041,87.3849 -68.69994,97.9504 -16.15448,7.5557 -36.93588,5.6137 -52.72014,-4.9267 -12.94584,-8.6449 -20.60731,-21.2303 -24.55315,-40.3334 -4.31415,-20.8861 -2.65811,-29.4643 13.24397,-68.6033 28.55444,-70.2796 28.18082,-81.8624 -7.29466,-226.1491 -14.94253,-60.77456 -19.062,-79.67785 -23.2699,-106.78011 -1.95228,-12.57425 -4.73596,-39.26735 -4.73835,-45.43666 -9.1e-4,-2.35613 -1.76887,-3.54785 -9.66778,-6.51667 -5.31667,-1.99829 -12.66667,-5.00125 -16.33333,-6.67326 -3.66667,-1.67201 -10.56667,-4.63997 -15.33334,-6.59546 -4.76666,-1.95549 -19.95125,-8.99638 -33.74353,-15.64642 -28.43898,-13.71204 -34.23544,-15.12366 -43.23945,-10.53016 -5.45114,2.78097 -12.03098,9.93871 -17.44389,18.97598 -4.60957,7.69602 -8.95382,20.45946 -14.95267,43.93105 -7.22695,28.27676 -14.21813,47.8773 -23.55432,66.03711 -4.11926,8.01236 -9.23642,18.03483 -11.37147,22.27214 -4.55301,9.0361 -6.92374,20.65761 -8.90013,43.62913 -0.78867,9.16666 -3.96897,32.26666 -7.06732,51.33333 -5.44936,33.53433 -5.63372,35.6684 -5.64419,65.3333 -0.01,27.0162 0.33747,32.1128 2.91502,42.8151 5.88431,24.4322 14.7735,44.5204 28.83847,65.1705 16.67343,24.4797 29.34933,34.1059 53.49681,40.6258 13.34673,3.6037 20.03374,7.4765 27.77398,16.0855 8.7424,9.7237 11.90256,19.0161 11.3396,33.3439 -0.52214,13.2886 -4.4965,22.7556 -11.54828,27.5081 -6.03989,4.0705 -18.2337,4.797 -69.5653,4.145 -47.97803,-0.6094 -49.51655,-0.8516 -61.59663,-9.6981 -3.44482,-2.5227 -8.67439,-7.8505 -11.62127,-11.8395 -3.6725,-4.9713 -6.84508,-7.7436 -10.08534,-8.813 -3.32258,-1.0965 -16.90644,-1.4293 -45.71207,-1.1198 l -40.9847,0.4403 -7.52201,-3.6925 c -17.55563,-8.618 -26.26153,-23.7209 -53.20793,-92.3046 -7.20312,-18.3333 -15.56606,-39.3333 -18.58429,-46.6667 -8.34925,-20.286 -10.68577,-30.0526 -10.68577,-44.6666 0,-15.2994 2.75614,-26.254 11.49088,-45.67203 19.51346,-43.37992 26.26562,-75.15664 26.41813,-124.328 0.1251,-40.32959 -3.53744,-66.72302 -14.50957,-104.56064 -12.04172,-41.52613 -39.91258,-100.08821 -63.60564,-133.64778 -1.48318,-2.10081 -2.65426,-2.68795 -3.57342,-1.79158 -0.93127,0.90817 0.50665,10.73795 4.50942,30.827 12.80741,64.27771 17.92015,112.05639 17.93017,167.55786 0.0333,184.21697 -39.74429,310.83497 -122.15063,388.82417 -30.69309,29.0479 -58.98767,45.8655 -92.63905,55.0624 -9.85424,2.6931 -14.25485,3.0619 -36.53697,3.0619 -28.2,0 -35.801173,-1.5019 -54.00967,-10.6715 -35.299602,-17.7766 -55.3396466,-58.691 -52.89647302,-107.9952 1.23694822,-24.962 7.39310122,-47.1341 20.24441902,-72.9123 12.746572,-25.5682 18.543292,-31.6868 32.849569,-34.6736 15.540845,-3.2445 30.182456,3.6229 37.545837,17.6103 3.566049,6.774 3.804727,8.1384 3.26115,18.6423 -0.522061,10.0881 -1.493094,13.5824 -8.837615,31.8027 -12.098454,30.0138 -14.671612,45.8245 -10.02885,61.622 2.022397,6.8814 6.664244,14.5082 11.150713,18.3212 1.129838,0.9602 5.354251,3.3269 9.387585,5.2593 14.390625,6.8945 36.879795,3.8829 56.330095,-7.5434 55.28877,-32.4799 97.12822,-110.2256 112.22949,-208.54371 6.1135,-39.80246 6.77615,-51.37781 6.73133,-117.58476 -0.0521,-76.97841 -2.32607,-106.9142 -15.24283,-200.66666 -15.83332,-114.9215 -15.97162,-164.77001 -0.59843,-215.6854 18.97851,-62.85606 58.95277,-116.45631 113.88369,-152.70312 26.29939,-17.35397 52.80084,-28.98221 85.48679,-37.5097 46.21854,-12.05803 65.49825,-14.18468 136.3724,-15.04257 75.67949,-0.91606 118.54788,1.48088 219.47417,12.2717 85.76691,9.17001 106.94978,9.55929 136,2.49928 10.35658,-2.51693 121.23029,-44.43059 132.66669,-50.15206 11.4362,-5.72137 28.0518,-16.73961 38.7703,-25.70956 5.0763,-4.24822 27.5297,-26.12602 49.8964,-48.61734 40.7623,-40.989506 58.2912,-56.41943 80.6666,-71.007322 11.6528,-7.597133 39.5236,-22.063795 56.2174,-29.180243 8.0131,-3.415966 8.3306,-3.747237 12.7785,-13.333334 5.7376,-12.366034 9.6108,-16.9342773 18.5605,-21.8915283 6.1024,-3.3801112 8.5278,-3.93842415 17.1103,-3.93860053 12.0203,-2.4702e-4 19.2027,3.04671293 29.7149,12.60588983 9.016,8.198572 10.5037,8.886447 21.6184,9.995928 12.2786,1.22565 27.2653,4.233493 38,7.626642 l 8.6667,2.739441 14.447,-3.485719 c 7.9458,-1.917146 18.625,-5.319452 23.7314,-7.560681 12.3217,-5.408044 17.9815,-5.047174 21.725,1.385185 2.3915,4.109188 2.675,6.734985 2.4775,22.94431 l -0.2231,18.304085 10.9211,7.643819 c 13.941,9.757499 32.6589,28.617818 40.4229,40.730408 5.3814,8.39551 13.8315,30.7789 13.8315,36.63805 0,2.92044 14.7144,27.84701 31.7383,53.76577 17.2088,26.20016 23.5982,38.45574 22.2551,42.68757 -0.4851,1.52834 -2.782,4.77798 -5.1043,7.22143 -6.9337,7.29543 -11.9423,16.64648 -13.1875,24.62114 -0.6415,4.10843 -2.0497,10.07884 -3.1293,13.2676 -2.1828,6.44717 -21.1069,30.86893 -23.9199,30.86893 -2.7494,0 -6.5958,5.66316 -9.7826,14.40326 -3.5082,9.62141 -12.6196,18.75536 -23.9123,23.97148 -10.5765,4.88524 -25.7125,4.99182 -41.4583,0.29192 -10.4126,-3.10799 -11.6294,-3.86257 -18,-11.16219 -17.7263,-20.31133 -17.9001,-20.45986 -29.7273,-25.41083 C 1458.1841,322.14214 1451.8749,320 1450.418,320 c -3.4002,0 -19.0043,10.81982 -31.481,21.82885 -13.2016,11.64861 -24.4341,24.49998 -33.8225,38.6971 -20.1241,30.43161 -26.9231,53.69934 -38.3956,131.39784 -11.1859,75.75722 -23.0571,124.1455 -54.4826,222.07621 -37.6251,117.25031 -60.691,209.97499 -83.4165,335.3333 -10.8416,59.8045 -10.8273,59.6853 -10.7306,89.3334 0.078,23.8281 0.4642,28.7012 3.0135,38 6.0836,22.1894 18.5543,42.561 30.2504,49.4154 5.1591,3.0234 8.4136,3.7304 21.6917,4.7125 13.9511,1.0318 16.6481,1.6612 25.2166,5.8843 14.8559,7.322 22.8991,18.0759 26.5245,35.4635 2.9053,13.9339 0.4947,24.6025 -7.6568,33.8865 -8.774,9.9931 -8.718,9.984 -60.7426,9.8651 -33.6996,-0.077 -48.661,-0.6002 -54.7029,-1.9128 z m 43.1304,-11.0016 c 2.0436,-1.3521 5.3475,-8.1244 6.4402,-13.2014 2.4113,-11.2028 -8.1423,-26.1071 -21.044,-29.7194 -9.1774,-2.5695 -24.7405,-1.1412 -36.2101,3.3232 -5.1334,1.998 -11.4334,3.7045 -14,3.7921 -4.3317,0.1478 -4.6667,-0.1279 -4.6667,-3.8408 0,-4.4053 3.0238,-6.4165 17.0684,-11.3528 24.1956,-8.5041 46.0111,-5.5677 59.6012,8.0224 9.9179,9.9179 12.6094,19.5537 10.148,36.3304 l -1.1249,7.6667 h 14.6137 c 18.8253,0 19.7144,-0.7458 19.6473,-16.4811 -0.036,-8.4227 -0.709,-12.218 -3.0064,-16.953 -4.5423,-9.362 -11.5799,-16.6936 -19.9595,-20.7933 -7.161,-3.5036 -8.9504,-3.7677 -30.3186,-4.4754 -12.4897,-0.4137 -23.4497,-1.2102 -24.3556,-1.77 -2.098,-1.2967 -2.1231,-5.1844 -0.047,-7.2605 0.9529,-0.953 5.5461,-1.6 11.3576,-1.6 h 9.7576 L 1211.3489,1245 c -15.2983,-20.0754 -21.9709,-38.1761 -24.6857,-66.9643 -1.7438,-18.4926 -1.1414,-34.8296 2.1399,-58.0357 8.8261,-62.4182 23.7167,-135.18993 45.2757,-221.2655 5.4091,-21.59603 9.5542,-39.54603 9.2113,-39.88889 -0.7755,-0.77553 0.4751,-3.06381 -11.5615,21.15439 -13.2362,26.63166 -24.0641,44.70707 -52.3163,87.33333 -27.3528,41.26927 -35.5946,55.09537 -46.7608,78.44437 -14.9955,31.3558 -20.5085,52.9115 -21.5863,84.4011 -0.7083,20.6916 1.2446,47.6979 3.5523,49.1241 0.5392,0.3332 1.3572,-5.9809 1.8178,-14.0314 0.9825,-17.1709 6.063,-43.6006 11.0479,-57.4724 4.2153,-11.7305 13.9546,-31.4864 19.6202,-39.7991 4.7401,-6.9549 17.7957,-21.0071 21.2199,-22.8396 3.0172,-1.6148 7.6768,0.7717 7.6768,3.9318 0,1.2825 -3.99,7.1113 -8.8666,12.9531 -20.9728,25.1237 -31.7715,49.3226 -37.4645,83.9547 -3.0988,18.8507 -3.0897,73.5989 0.015,91.3492 3.319,18.9744 8.3454,35.1107 15.5701,49.9841 10.1137,20.8211 20.7609,30.9427 36.5905,34.7843 7.3939,1.7944 40.5545,2.4596 42.9693,0.862 z m -74.8618,-72.9063 c -3.4316,-3.4315 -7.2855,-11.0713 -7.2855,-14.4423 0,-3.6705 3.4168,-6.6625 6.4933,-5.686 4.3683,1.3864 12.4775,14.2369 11.9413,18.9232 -0.6111,5.3416 -6.3882,5.966 -11.1491,1.2051 z m 13.5702,-40.7064 c -6.829,-7.5588 -8.2885,-16.0278 -3.3008,-19.1534 3.2129,-2.0134 5.8467,0.6648 11.2963,11.4863 3.6582,7.2642 4.2981,9.5821 3.0576,11.0767 -2.642,3.1835 -6.0451,2.1337 -11.0531,-3.4096 z m -20.0938,-48.7955 c -2.3894,-2.3894 -2.8103,-11.4106 -0.715,-15.3257 1.4997,-2.8022 7.2154,-3.5181 8.7151,-1.0915 1.6635,2.6916 0.8972,16.1519 -0.9875,17.3467 -2.644,1.6761 -4.6763,1.4068 -7.0126,-0.9295 z m 21.7579,-36.7183 c -2.2966,-2.2966 -2.6574,-3.7906 -1.9634,-8.1305 1.494,-9.3431 4.2571,-14.3893 7.879,-14.3893 5.6701,0 6.9308,3.0783 5.2586,12.8404 -2.1495,12.5487 -5.4478,15.4058 -11.1742,9.6794 z m 7.7024,-102.0753 c -3.0277,-3.0278 0.9178,-13.0704 8.1632,-20.7778 4.2685,-4.54069 7.8745,-4.68501 9.8299,-0.3934 3.7156,8.155 -12.2378,26.9264 -17.9931,21.1712 z m 119.8288,295.2518 c 3.388,-4.0264 3.5747,-4.9069 2.8983,-13.6667 -1.2136,-15.715 -8.6629,-28.4417 -20.047,-34.2495 l -5.3503,-2.7295 4.1802,5.2779 c 9.6137,12.1383 14.3813,27.1781 13.3155,42.0049 -0.3032,4.2166 -0.1162,7.6666 0.4154,7.6666 0.5316,0 2.5961,-1.9366 4.5879,-4.3037 z M 128.35986,1265.4188 c 17.39252,-2.3241 21.18185,-3.3414 38.04423,-10.213 17.0443,-6.9459 20.73841,-9.108 41.09632,-24.0539 21.51823,-15.7977 23.08362,-17.2723 41.17661,-38.787 27.91112,-33.1896 44.0733,-59.856 59.61769,-98.3649 16.34997,-40.5046 25.5853,-77.8234 32.24628,-130.3033 C 347.32414,910.25434 348.53787,885.69054 347.44356,824 346.4472,767.83127 345.96575,762.72799 335.4936,697.33333 330.30651,664.94187 326.91715,632.11763 326.06272,606 l -0.78515,-24 9.77373,17.33333 c 5.37556,9.53334 16.51303,29.0145 24.74995,43.29148 30.70466,53.22017 40.01688,73.81349 58.20145,128.70852 24.47631,73.88832 51.90288,137.43441 85.16932,197.33334 8.55279,15.4 16.7935,31.3 18.31269,35.33333 3.54053,9.3998 6.44652,23.005 6.55023,30.6667 0.0447,3.3 0.63149,8.7 1.30403,12 0.67255,3.3 2.16201,15.6 3.30993,27.3333 2.90131,29.6556 8.97024,63.4988 16.07356,89.6338 6.65995,24.5038 21.23357,60.2276 28.14966,69.0025 9.41888,11.9502 27.05815,19.0394 43.55817,17.5059 14.0989,-1.3104 17.57989,-3.9918 20.2901,-15.6298 2.01048,-8.6332 -5.21913,-22.384 -15.05369,-28.6322 -5.71741,-3.6325 -7.00467,-6.6755 -4.06667,-9.6135 4.29047,-4.2905 16.89679,1.3158 22.70949,10.0994 5.9558,8.9998 7.92205,16.9933 7.4502,30.2878 l -0.42636,12.0128 10,-0.085 c 17.92269,-0.1526 22.84522,-5.6812 19.93553,-22.3899 -2.93852,-16.8742 -13.61882,-28.8389 -29.99191,-33.5987 -10.48964,-3.0494 -12.63119,-7.1302 -5.22051,-9.9477 3.00618,-1.1429 2.69602,-1.637 -7.79619,-12.4175 -25.80784,-26.5172 -42.64619,-57.9567 -50.32431,-93.9624 -3.57787,-16.778 -4.95741,-55.1421 -2.6945,-74.932 0.88047,-7.69997 3.97845,-28.39997 6.88439,-45.99997 2.90595,-17.6 6.13078,-41.9 7.16629,-54 2.26371,-26.45169 3.99599,-62.66666 2.99755,-62.66666 -0.39515,0 -1.98712,2.62071 -3.53771,5.82379 -3.77794,7.8042 -7.26052,10.70954 -12.83733,10.70954 -6.30472,0 -8.56559,-2.75496 -9.84989,-12.00249 -1.47413,-10.61431 0.54144,-22.12663 5.50403,-31.4374 5.27202,-9.89133 8.92215,-12.32942 16.83497,-11.24484 l 6.02385,0.82566 -0.92052,-42.33713 c -1.30228,-59.89568 -3.08037,-94.38377 -5.4601,-105.90479 -5.19016,-25.12713 -20.92618,-52.71045 -49.96247,-87.57807 -12.8494,-15.42994 -18.75117,-23.62145 -18.75117,-26.02616 0,-1.39993 4.30492,-4.82811 6.06288,-4.82811 2.23608,0 36.18317,41.25542 47.17683,57.33333 11.39594,16.66624 19.35401,32.19023 24.69283,48.16887 2.60377,7.79287 4.73413,15.14287 4.73413,16.33333 0,3.5547 2.44414,2.4612 4.84776,-2.16887 5.56091,-10.7119 1.54566,-20.91051 -25.67161,-65.20515 -18.81328,-30.61759 -27.25817,-47.16117 -30.514,-59.77712 -2.58802,-10.02824 -3.01816,-27.6155 -0.77779,-31.80167 1.7037,-3.18338 7.28576,-3.93572 9.02269,-1.21606 0.58543,0.91667 1.11875,7.66667 1.18514,15 0.15943,17.60905 2.9485,25.42193 17.8492,50 6.44657,10.63334 17.57499,29.53334 24.72984,42 23.95479,41.73908 41.46195,64.60542 61.58311,80.43458 9.93818,7.81829 24.76545,17.56542 26.72039,17.56542 0.46265,0 -4.24268,-5.25 -10.45629,-11.66666 -13.04566,-13.47198 -17.66656,-19.22637 -24.35836,-30.33334 -5.40856,-8.97707 -6.16207,-14.52486 -2.25667,-16.61497 3.71412,-1.98774 5.60957,-0.80368 10.08143,6.29767 8.22503,13.06144 24.14354,33.0159 35.37555,44.34459 19.56533,19.73375 38.99081,32.82919 63.93106,43.09831 10.23076,4.21251 28.57473,10.20774 31.23323,10.20774 0.30714,0 0.95655,-3.15 1.44314,-7 1.85784,-14.69961 6.41356,-26.90908 23.13509,-62.00276 18.15157,-38.09489 23.88631,-47.42734 28.71819,-46.73462 1.55009,0.22222 3.03491,1.53946 3.29961,2.92719 0.2647,1.38773 -7.66568,19.08773 -17.62306,39.33334 -19.30621,39.25385 -23.68748,51.33771 -26.31249,72.57178 -4.27407,34.57359 4.08319,82.28643 37.99253,216.90507 12.81415,50.87163 14.27494,59.51083 15.10529,89.33333 0.58444,20.9904 0.27664,27.0678 -2.06524,40.7775 -3.49981,20.4883 -9.15749,38.1695 -18.9502,59.2225 -10.15533,21.8326 -12.3702,29.8301 -12.3702,44.6667 0,25.1267 11.23303,44.6037 25.76934,44.6817 2.79995,0.015 8.54002,-1.9574 14.3498,-4.9309 9.0337,-4.6236 9.83202,-4.8071 11.90312,-2.736 2.97117,2.9712 0.64688,8.2413 -5.01897,11.3803 -9.09256,5.0373 -9.18282,5.819 -0.56728,4.9131 10.77302,-1.1328 20.55686,-5.7924 29.07202,-13.8457 8.60833,-8.1414 12.57072,-15.7601 16.33298,-31.4045 3.42476,-14.2411 5.8286,-16.7229 10.54091,-10.8831 l 3.09991,3.8416 4.80255,-10.1204 c 19.98847,-42.1217 27.64002,-81.6103 23.55509,-121.5648 -2.17468,-21.2706 -5.11952,-37.2632 -16.08094,-87.33133 C 935.7785,892.44098 932.78592,874.9982 932.92427,852 c 0.13022,-21.64914 2.80827,-33.45125 11.64818,-51.33333 12.65246,-25.59442 35.73544,-45.11774 65.41845,-55.33019 9.8224,-3.37941 12.2161,-3.35352 14.0924,0.15241 2.1363,3.99167 -0.2125,5.91717 -14.3157,11.73584 -15.44319,6.37151 -25.69029,13.20778 -37.10089,24.75154 -11.06876,11.19793 -18.17469,22.82204 -22.72828,37.17961 -5.31803,16.76786 -7.32927,37.77196 -4.74089,49.51079 0.72894,3.30588 1.53704,1.22353 4.65686,-12 4.91087,-20.81504 10.2164,-34.47574 17.88959,-46.06225 6.38288,-9.63813 10.55419,-12.34336 14.27337,-9.25672 2.97637,2.47017 2.5577,3.85079 -4.60975,15.20141 -5.9399,9.40663 -10.1399,18.11756 -8.73542,18.11756 0.29339,0 4.34727,-2.66607 9.00862,-5.92459 4.66136,-3.25852 18.09432,-10.96379 29.85099,-17.12283 32.2676,-16.90412 48.1424,-28.78079 62.5666,-46.80878 13.8813,-17.34954 23.1267,-38.47151 25.1585,-57.47714 0.4704,-4.4 1.1559,-9.9427 1.5233,-12.31713 0.8224,-5.31566 4.66,-7.76645 8.741,-5.58235 2.6804,1.43451 2.8067,2.23011 2.0706,13.04691 -2.6033,38.25467 -23.8097,72.62472 -61.2318,99.24048 -6.402,4.55332 -20.038,12.77876 -30.3022,18.27876 -10.2642,5.5 -18.67619,10.47067 -18.6933,11.04592 -0.0982,3.29994 38.0171,-5.7981 56.3074,-13.44046 57.2447,-23.91889 110.9402,-81.46672 129.6382,-138.93879 6.2893,-19.33146 8.6283,-24 12.0242,-24 1.6533,0 3.7715,0.92247 4.7072,2.04995 2.201,2.65202 -0.3684,12.18424 -9.4567,35.08396 -11.634,29.31376 -18.5588,40.36791 -46.4613,74.16699 -8.5012,10.29779 -16.2666,19.75141 -17.2564,21.00805 -2.9287,3.71809 76.6138,-35.79471 91.133,-45.2704 34.6146,-22.5907 60.6028,-51.15936 79.2332,-87.10061 18.7974,-36.26333 27.2502,-68.36722 37.3716,-141.93794 1.5133,-11 3.0576,-21.78125 3.4317,-23.95834 0.423,-2.46215 0.2111,-3.4701 -0.5607,-2.66666 -2.2665,2.35939 -12.9956,29.04518 -18.6876,46.48052 -6.6064,20.23592 -12.11,31.65072 -20.8952,43.33758 -13.7516,18.29374 -39.6382,31.95922 -64.837,34.22734 -24.4801,2.20342 -59.0547,-9.26285 -79.056,-26.21799 -8.9418,-7.57989 -11.4246,-11.87944 -8.7328,-15.12279 2.8496,-3.4336 5.5895,-2.41622 16.0502,5.95965 19.1787,15.35635 42.269,24.0409 64.6826,24.32792 18.8797,0.24176 33.3183,-4.28664 47.3333,-14.84519 16.1418,-12.16087 25.7157,-28.0329 38.7181,-64.18871 16.749,-46.57376 37.6448,-95.56111 58.0115,-136 19.1017,-37.92712 28.9476,-51.51741 48.5967,-67.07801 5.5039,-4.35862 10.1558,-8.29914 10.3377,-8.75671 0.1819,-0.45757 -9.7181,-0.89529 -22,-0.97271 -33.9576,-0.21406 -57.8859,-6.19702 -77.6988,-19.42757 -7.7094,-5.14814 -25.2757,-25.17317 -25.2912,-28.83121 -0,-0.95309 -0.9319,-3.52087 -2.062,-5.70619 -1.1301,-2.18531 -3.5905,-9.20552 -5.4676,-15.60045 -3.1318,-10.66932 -3.3578,-13.10996 -2.7436,-29.62715 0.7573,-20.3652 3.1401,-37.11301 5.668,-39.83953 1.0855,-1.17083 2.9583,-1.52511 5.1517,-0.9746 3.0346,0.76165 3.442,1.53859 3.4112,6.5062 -0.019,3.10269 -1.1609,14.00131 -2.5372,24.21915 -2.0683,15.3563 -2.2044,19.0557 -0.7849,21.33333 0.9445,1.5155 2.035,6.56842 2.4234,11.22872 0.5609,6.73016 2.1696,11.39159 7.8199,22.65918 6.154,12.27201 8.1931,15.05221 15.1138,20.60696 10.1106,8.11515 26.2489,16.1112 40,19.81887 13.9322,3.75652 45.3406,4.09039 60.6666,0.64488 18.2659,-4.10645 44.6422,-11.73193 46.3824,-13.4093 1.8064,-1.74123 0.897,-6.12719 -1.2704,-6.12719 -0.7019,0 -0.7871,-0.74507 -0.1907,-1.66667 0.5933,-0.91667 1.0836,-6.89443 1.0896,-13.28392 0.012,-12.8529 0.1128,-13.02853 10.6558,-18.58897 2.9333,-1.54706 7.5017,-4.7582 10.1518,-7.13587 2.6502,-2.37767 8.0502,-5.3738 12,-6.65807 15.9318,-5.18017 21.9035,-14.11436 20.9096,-31.28276 -1.0292,-17.77938 -8.9906,-26.68527 -23.9096,-26.74636 -10.6575,-0.0436 -17.0897,-3.58559 -25.1598,-13.8546 -7.7023,-9.80103 -9.0862,-10.25115 -20.6587,-6.71928 -3.7968,1.15879 -8.6755,1.70137 -11.3333,1.26044 -3.6806,-0.6106 -5.637,-0.0575 -9.259,2.6176 -5.7366,4.23688 -8.6485,4.27219 -12.7658,0.15483 -2.8521,-2.85204 -3.066,-3.72744 -1.7992,-7.36148 1.8937,-5.43216 4.9756,-6.98325 10.6449,-5.35733 7.2577,2.08148 20.3145,1.49219 33.5266,-1.51316 11.2391,-2.55657 20.7713,-3.08445 38.2617,-2.11886 6.3032,0.34797 8.2991,-3.57615 7.7444,-15.22623 -0.3292,-6.91288 -1.2035,-9.99834 -4.0533,-14.30475 -4.625,-6.98873 -4.6713,-9.547897 -0.1728,-9.547897 11.9609,0 19.1177,19.087827 12.5685,33.521057 -4.0869,9.00653 -3.5243,16.73703 1.9426,26.69578 13.3137,24.25298 16.4004,35.20705 14.0281,49.78325 -2.2698,13.94582 -6.6746,18.7501 -26.2232,28.60129 -8.8853,4.47759 -15.2588,8.71583 -18.4968,12.2999 -4.901,5.42476 -4.9355,5.54397 -4.3307,14.96696 0.5365,8.36106 1.2949,10.58382 6.3321,18.55963 7.2057,11.40953 20.1917,22.00359 31.0825,25.35736 4.2335,1.30369 7.3481,2.93534 6.9213,3.62589 -1.8482,2.99044 21.9169,-0.6247 32.3148,-4.91572 11.3548,-4.68596 18.6203,-13.39729 21.7968,-26.13473 2.3387,-9.37763 1.1526,-11.976 -7.4546,-16.33085 -8.1038,-4.10016 -13.1218,-10.12336 -15.3833,-18.46492 -1.0149,-3.7435 -0.9638,-5.60715 0.1922,-7 2.5339,-3.05321 5.0159,-2.22071 8.2366,2.76266 4.0673,6.29332 6.8445,6.94497 11.806,2.77015 4.9194,-4.13943 5.2552,-4.15282 16.5617,-0.66061 4.9332,1.52373 10.3564,2.42234 12.0515,1.9969 7.0419,-1.76739 5.7383,-4.90884 -15.1566,-36.52489 -23.4879,-35.5396 -28.7777,-45.62007 -33.0741,-63.02739 -1.7536,-7.1053 -4.1424,-15.20178 -5.3083,-17.9922 -13.0744,-31.291331 -68.5308,-70.526878 -121.2013,-85.750202 -18.0767,-5.224699 -44.6666,-8.623948 -44.6666,-5.710166 0,0.602698 0.9435,3.864851 2.0966,7.249228 2.9597,8.686087 2.1833,13.545111 -2.2464,14.059135 -3.1187,0.36191 -3.8043,-0.405018 -6.5555,-7.333333 -11.0668,-27.869513 -21.0073,-38.179987 -36.8965,-38.269759 -5.7575,-0.03253 -7.7951,0.648535 -12,4.011011 -2.7857,2.227607 -6.9326,7.523227 -9.2154,11.768046 -3.5006,6.509515 -4.52,10.66924 -6.5111,26.568855 -2.2265,17.779962 -2.2336,19.608549 -0.1254,32.184335 1.2294,7.333333 3.7663,19.93333 5.6374,28 4.4536,19.19952 4.7232,25.22003 1.1496,25.66647 -1.4667,0.18322 -4.0254,-0.72593 -5.686,-2.02035 -2.5357,-1.97641 -3.8669,-6.51591 -8.3092,-28.33314 -4.3556,-21.391519 -5.294,-28.727194 -5.3139,-41.537263 -0.013,-8.55669 -0.3623,-16.438542 -0.7754,-17.515227 -0.587,-1.52955 -5.7621,0.562504 -23.6667,9.5674 -42.8949,21.573377 -53.7259,30.358622 -127.6485,103.53845 -31.9365,31.61558 -61.3053,60.04316 -65.2641,63.1724 -14.4601,11.43002 -27.9512,16.48575 -50.4188,18.89423 -44.94442,4.81794 -86.45011,29.75226 -110.63514,66.46344 -10.13346,15.38189 -14.70749,27.90854 -22.98457,62.9466 -10.15385,42.98271 -21.2713,72.4581 -37.73766,100.05283 -8.95577,15.00829 -12.04489,18.28758 -15.30477,16.24696 -4.34581,-2.72039 -3.28597,-7.47165 4.57508,-20.51013 15.46335,-25.64776 24.24817,-49.28231 37.19076,-100.05751 4.77549,-18.73477 10.53623,-37.85606 13.45688,-44.66666 6.08977,-14.2006 17.5657,-31.67273 27.74498,-42.24183 7.82152,-8.12104 7.68917,-8.40278 -2.99532,-6.37651 -27.25943,5.16964 -45.79912,4.60651 -130.22767,-3.95561 -129.20156,-13.10267 -180.49247,-16.00972 -237.33334,-13.4515 -72.32165,3.25496 -117.3585,12.84299 -162.66668,34.6306 -44.85093,21.56774 -84.10923,55.01347 -101.50915,86.47974 -2.73922,4.95363 -8.02025,12.33582 -11.73562,16.40485 -14.48798,15.86703 -29.52728,61.66251 -32.16203,97.93509 -0.47941,6.6 -1.92985,16.63813 -3.22321,22.30695 -2.17027,9.51239 -2.20548,11.87644 -0.45673,30.66666 1.04216,11.19785 2.10034,28.15973 2.35152,37.69306 0.2775,10.53214 2.07974,27.79671 4.59313,44 2.27504,14.66667 6.93219,48.86667 10.34924,76 l 6.2128,49.33333 1.45669,72 c 2.39353,118.30509 0.2915,144.32687 -16.85602,208.66667 -5.17927,19.4333 -9.91398,35.6603 -10.52159,36.0598 -0.6076,0.3996 -6.24319,12.9996 -12.52353,28 -6.28034,15.0005 -15.14065,33.5735 -19.68958,41.2735 -11.05868,18.7191 -27.67755,36.8087 -49.27261,53.6332 l -17.15437,13.3647 -17.59614,4.4968 -17.59614,4.4968 -15.33334,-1.5972 c -11.339252,-1.1812 -17.447453,-2.5472 -23.449475,-5.2439 -7.936305,-3.5658 -8.207526,-3.8627 -12.240268,-13.3985 -7.502335,-17.74 -6.549501,-44.876 2.507987,-71.4256 4.714967,-13.8207 9.181757,-34.3677 9.181757,-42.2355 0,-3.0887 -0.926798,-8.3357 -2.05955,-11.6602 -1.946417,-5.7124 -2.477418,-6.1709 -9.666667,-8.3466 -6.776172,-2.0507 -8.408157,-2.1005 -14.940451,-0.4563 -6.507045,1.6379 -7.830369,2.5892 -11.74453,8.4424 -7.174476,10.7288 -20.127048,38.6717 -26.43407,57.0269 -5.667584,16.4943 -5.90123,17.8105 -6.627277,37.3334 l -0.75258,20.2363 5.259265,15.382 c 4.564888,13.3512 6.650351,17.27 15.795438,29.6812 10.171706,13.8045 11.041977,14.6029 25.158211,23.0819 10.69747,6.4255 16.240073,8.9406 20.650458,9.3708 3.315631,0.3235 11.12842,1.3959 17.361753,2.3832 6.233329,0.9874 12.018089,1.864 12.854999,1.948 0.83692,0.084 10.2141,-1.0086 20.83819,-2.4283 z m -32.235181,-3.2686 c -1.196396,-1.4415 -0.496828,-3.9187 3.170074,-11.2253 2.587887,-5.1565 4.705247,-9.692 4.705247,-10.0788 0,-1.4891 9.76963,-17.2824 12.18487,-19.6976 2.0718,-2.0718 3.06269,-2.2648 5.34845,-1.0415 6.65889,3.5638 -1.55378,26.5585 -13.46457,37.6997 -6.95243,6.5032 -9.410015,7.3969 -11.944071,4.3435 z m 31.873731,-1.4855 c -1.36535,-1.6451 -0.68159,-4.0164 3.83674,-13.3059 3.02401,-6.2172 5.49819,-11.5636 5.49819,-11.8809 0,-1.5852 10.98937,-19.3566 13.21526,-21.371 1.41066,-1.2767 3.96431,-2.123 5.67479,-1.8807 2.54779,0.3608 3.18589,1.3633 3.53006,5.546 0.90725,11.0255 -8.30213,29.7896 -19.42681,39.5819 -6.43681,5.6659 -9.65607,6.5304 -12.32823,3.3106 z m -68.164462,-7.4974 c -2.394468,-2.3945 -2.711723,-3.8544 -2.050632,-9.4363 1.437605,-12.1383 13.445557,-31.731 19.447269,-31.731 2.874884,0 6.769419,4.0722 6.769419,7.0783 0,3.1018 -11.749586,29.5771 -14.908239,33.5926 -3.203133,4.0722 -5.555896,4.1983 -9.257817,0.4964 z m 115.721612,-19.3895 c -3.24626,-3.2463 2.59342,-14.8652 9.90225,-19.7019 6.95173,-4.6004 11.01288,-5.4147 13.68386,-2.7438 3.46577,3.4658 2.61027,8.1969 -2.50632,13.8603 -6.709,7.4261 -17.74453,11.9206 -21.07979,8.5854 z m 719.37782,-10.0445 c -2.21035,-2.2103 -2.00488,-7.0708 0.38268,-9.0523 2.7226,-2.2595 8.31184,-0.6207 9.38196,2.751 1.68388,5.3054 -5.87965,10.1863 -9.76464,6.3013 z m -36.00001,-10.6666 c -4.36412,-4.3642 0.37504,-14.4 6.8,-14.4 6.72976,0 8.44208,7.2791 2.99394,12.7272 -3.55696,3.557 -7.27473,4.192 -9.79394,1.6728 z m -833.933369,-5.1735 c -1.283333,-0.7475 -2.333333,-2.354 -2.333333,-3.5701 0,-1.216 5.185712,-12.6511 11.523805,-25.4111 11.278313,-22.7059 18.890132,-33.5787 23.507843,-33.5787 12.696819,0 4.207267,33.1488 -13.344887,52.1072 -6.713537,7.2515 -13.054928,11.9625 -15.953881,11.8523 -0.586417,-0.022 -2.116213,-0.6521 -3.399547,-1.3996 z M 217.44955,1197.798 c -3.74372,-2.6222 -3.50374,-7.0303 0.72171,-13.2568 4.26717,-6.2881 6.23596,-7.951 13.36923,-11.2924 7.79212,-3.65 12.39606,-1.6359 12.4391,5.4417 0.0626,10.2918 -19.25385,24.2039 -26.53004,19.1075 z m 679.89596,-13.1167 c -2.21072,-2.6638 -0.96903,-8.6393 4.7356,-22.7896 6.07296,-15.0639 14.19688,-27.3285 24.72317,-37.3242 14.76684,-14.0225 24.97941,-18.2173 27.21363,-11.1779 1.11597,3.5161 0.32668,4.491 -8.47551,10.4685 -16.34228,11.0978 -32.33563,33.3398 -35.57574,49.4752 -1.83555,9.1409 -4.26782,13.3334 -7.73532,13.3334 -1.78096,0 -3.97959,-0.8935 -4.88583,-1.9854 z m -298.30244,-5.0146 c -5.60804,-6.1065 -5.06628,-15.6667 0.8878,-15.6667 5.37362,0 12.58376,12.8335 9.37938,16.6945 -2.39209,2.8823 -7.10996,2.41 -10.26718,-1.0278 z m -30.63964,-17.2628 c -6.22933,-3.0096 -9.37499,-17.1508 -4.04025,-18.1627 3.01169,-0.5712 11.18947,7.5121 12.37381,12.2309 0.92534,3.6868 -1.12878,7.604 -3.90022,7.4377 -0.82688,-0.05 -2.82188,-0.7273 -4.43334,-1.5059 z m 294.27765,-1.7199 c -2.59856,-3.1311 -0.5734,-7.8574 6.84449,-15.9738 8.1906,-8.9618 13.74989,-12.3047 16.57025,-9.964 3.16114,2.6235 2.20147,5.9275 -4.19211,14.4328 -9.13182,12.148 -15.5172,15.9697 -19.22263,11.505 z m 75.2655,0.5628 c -1.4458,-2.3393 0.56447,-9.9102 3.45533,-13.0132 1.48611,-1.5951 4.16721,-2.9003 5.95801,-2.9003 5.92151,0 5.7059,7.9949 -0.40452,15 -2.25243,2.5823 -7.63986,3.1285 -9.00882,0.9135 z m -688.03818,-5.395 c -4.5543,-7.369 9.33856,-30.5185 18.3153,-30.5185 9.8903,0 7.98326,15.6247 -3.21994,26.3815 -5.07237,4.8702 -13.25606,7.113 -15.09536,4.137 z M 43.073586,1131.9857 c -5.548994,-2.2349 -5.69433,-15.6765 -0.301321,-27.8683 3.285804,-7.4281 12.197199,-19.3807 16.600625,-22.2659 3.036388,-1.9895 3.552608,-1.9886 6.605944,0.012 5.524949,3.6201 5.407122,7.2466 -0.702846,21.6323 -12.161769,28.6344 -14.474639,31.6023 -22.202402,28.4899 z m 533.771504,-2.4552 c -2.85625,-3.1562 -3.29503,-10.6724 -0.71825,-12.3038 5.16744,-3.2714 10.89269,1.8414 10.28248,9.1826 -0.34549,4.1565 -0.93975,4.9858 -3.81219,5.3205 -2.07405,0.2416 -4.32026,-0.6172 -5.75204,-2.1993 z m -327.84508,-10.9706 c -3.65689,-2.13 -2.66013,-7.8704 2.73879,-15.7731 6.20383,-9.0808 8.31428,-10.4648 12.82433,-8.4099 4.3925,2.0013 4.39208,5.3302 -0.002,14.0961 -5.66332,11.2987 -9.36322,13.697 -15.56136,10.0869 z m 632.96418,-14.1196 c -1.84097,-1.8409 -2.06491,-3.7336 -1.29377,-10.9344 0.5129,-4.7894 1.43752,-10.0362 2.05471,-11.6596 1.39156,-3.66 5.62653,-5.1322 9.22455,-3.2066 2.37465,1.2709 2.71703,2.7549 2.71703,11.7772 0,11.5944 -2.0953,16.2498 -7.3137,16.2498 -1.73937,0 -4.16434,-1.0019 -5.38882,-2.2264 z m 30.26191,-2.4558 c -5.82383,-7.4038 -7.05635,-27.4663 -2.14761,-34.958 2.68341,-4.0954 9.16434,-4.11 11.78647,-0.026 6.07549,9.4614 7.55357,27.9349 2.81386,35.1686 -2.85097,4.3512 -8.95631,4.2609 -12.45272,-0.1841 z m -633.23265,0.4756 c -2.21234,-2.2123 -2.09345,-5.4074 0.55209,-14.836 1.39727,-4.9799 3.82088,-9.5899 6.57917,-12.5146 3.79204,-4.0207 4.73949,-4.4309 7.19635,-3.1161 3.95489,2.1166 5.10122,6.1357 3.77728,13.2433 -1.72776,9.2754 -7.62365,18.007 -12.4852,18.4901 -2.17777,0.2164 -4.70663,-0.3536 -5.61969,-1.2667 z m 276.49581,-15.2013 c -2.05687,-5.3601 5.78868,-15.2588 12.09386,-15.2588 6.61765,0 5.88726,10.2844 -1.07681,15.1623 -3.93815,2.7584 -9.9753,2.8113 -11.01705,0.097 z M 271.40895,1070.37 c -2.62561,-3.7486 -2.6278,-8.2744 -0.008,-15.9638 2.53201,-7.4311 7.20159,-12.1201 11.46832,-11.516 2.82983,0.4006 3.16969,1.2062 3.53866,8.3881 0.83236,16.2017 -8.60751,28.2172 -14.99924,19.0917 z m 677.76981,1.6232 c -3.76554,-2.2003 -8.11205,-14.4352 -8.11205,-22.8344 0,-14.0194 7.68282,-23.3592 12.79592,-15.5556 3.53298,5.392 6.50981,19.7367 5.70799,27.5056 -1.0228,9.9099 -4.97513,14.0496 -10.39186,10.8844 z m -649.75017,-7.4218 c -1.15239,-1.1524 -2.09524,-2.9298 -2.09524,-3.95 0,-3.4218 5.61546,-17.2611 8.03259,-19.7964 2.95932,-3.1039 8.73301,-2.0476 9.96133,1.8225 1.09541,3.4513 -2.80059,18.5606 -5.57702,21.6285 -2.66968,2.95 -7.52808,3.089 -10.32166,0.2954 z m 583.55077,-12.9053 c -3.45072,-3.6731 -6.01161,-14.3612 -4.88274,-20.3786 0.96532,-5.1456 4.9107,-9.2871 7.79352,-8.1808 3.01887,1.1584 7.49541,10.9397 8.36429,18.276 1.32689,11.2035 -4.99442,16.9689 -11.27507,10.2834 z m -335.61677,-3.6338 c -1.98512,-2.1935 -2.27676,-4.3064 -1.74281,-12.6265 0.81756,-12.7392 6.26358,-24.2842 16.23473,-34.416 8.20121,-8.33325 11.60409,-9.72884 15.67815,-6.42986 2.74488,2.22267 2.78975,2.67264 1.15119,11.54306 -3.43809,18.6123 -12.50516,37.1271 -20.59906,42.0628 -5.2162,3.1809 -7.75131,3.1493 -10.7222,-0.1335 z m 366.9979,-17.8685 c -4.71561,-3.5812 -7.63361,-12.8974 -7.6645,-24.4702 -0.0655,-24.52755 10.14836,-30.46468 18.60223,-10.81313 3.75508,8.72893 4.76102,18.15803 2.77863,26.04543 -2.56738,10.215 -7.79432,13.7353 -13.71636,9.2379 z m -629.59857,-6.9257 c -5.02985,-5.0299 -1.11749,-29.19637 5.42014,-33.47999 2.97935,-1.95214 3.42713,-1.92233 6.00039,0.39949 2.46687,2.22583 2.71431,3.63792 2.19196,12.5091 -1.02369,17.3856 -7.30533,26.8786 -13.61249,20.5714 z m 27.17102,-9.3189 c -2.44069,-2.9409 -3.20511,-15.37776 -1.29999,-21.15034 0.88278,-2.67482 3.12898,-5.86184 4.99158,-7.08226 3.23759,-2.12135 3.49303,-2.08742 5.80793,0.77136 4.67903,5.77835 4.95124,19.70544 0.51742,26.47234 -2.32686,3.5513 -7.46906,4.0589 -10.01694,0.9889 z m 563.30584,-22.25253 c -9.12684,-10.79125 -13.55293,-28.88035 -9.46213,-38.67102 1.23936,-2.9662 2.9989,-4.99565 4.33125,-4.99565 6.28682,0 18.8279,20.86099 20.10556,33.44384 0.61804,6.08674 0.2767,7.79956 -2.17012,10.88949 -3.91805,4.94787 -8.2466,4.7225 -12.80456,-0.66666 z m -341.32116,-6.13202 c -10.89058,-6.73215 -22.66919,-26.24436 -24.09873,-39.92148 -0.77738,-7.43756 -0.58016,-8.30642 2.60949,-11.49607 4.69962,-4.69962 10.3776,-4.49464 18.41807,0.66492 7.5439,4.84091 13.32294,11.11276 17.43494,18.92172 2.30487,4.37711 2.97414,7.92107 3.00818,15.92919 0.0393,9.25171 -0.29535,10.63385 -3.28954,13.58494 -4.68326,4.61582 -9.16934,5.35386 -14.08241,2.31678 z m 395.34952,-20.26756 c -7.14916,-7.14916 -11.51239,-26.30842 -7.41534,-32.56131 2.64322,-4.03405 7.45414,-4.41939 10.67951,-0.8554 5.84569,6.45941 10.68937,28.08549 7.24519,32.34832 -3.07836,3.81006 -7.33497,4.24279 -10.50936,1.06839 z m -614.50649,-8.7838 c -4.06649,-5.16971 -6.96873,-16.1529 -5.99273,-22.67883 C 309.72644,927.39541 313.823,920 316.41467,920 c 2.57159,0 7.12795,5.2463 9.51217,10.95255 2.70215,6.46715 3.26467,24.00522 0.86278,26.89931 -2.79742,3.3707 -8.84202,2.68298 -12.02897,-1.36857 z m 253.61467,-1.1705 c -8.2843,-5.80255 -3.19624,-36.34142 8.66027,-51.97946 5.29651,-6.98577 10.51524,-9.13922 14.3784,-5.93308 4.87918,4.04936 0.95697,31.82975 -6.68749,47.36636 -5.72995,11.64555 -10.4423,14.68493 -16.35118,10.54618 z m 324.72782,-5.87438 c -4.13715,-3.25428 -8.42245,-11.97848 -9.73079,-19.81037 -1.18381,-7.08642 1.26462,-17.91783 4.76674,-21.08721 2.47908,-2.24354 2.75179,-2.23116 6.22679,0.28268 1.99879,1.44593 5.40745,6.15188 7.5748,10.45766 3.3296,6.61478 3.94983,9.43685 4,18.19997 0.0326,5.70421 -0.54064,10.96203 -1.27397,11.68406 -2.94026,2.89491 -8.07635,3.01626 -11.56357,0.27321 z m -406.04659,-28.394 c -2.60697,-3.31974 -15.36936,-32.52291 -19.1886,-43.90775 -4.62167,-13.77684 -4.98378,-21.35414 -1.20126,-25.13666 4.30105,-4.30105 8.36611,-3.34752 14.61083,3.42719 8.13007,8.82008 13.05113,20.28121 14.55827,33.90614 2.13734,19.32212 -3.24398,38.75972 -8.77924,31.71108 z m 36.74237,-6.75712 c -6.32484,-4.82411 -12.64304,-14.06985 -13.87799,-20.30833 -0.59004,-2.98068 -0.0241,-5.00232 2.18734,-7.81373 2.6182,-3.3285 3.62934,-3.70604 8.26162,-3.08472 9.35171,1.25433 21.97006,13.92493 23.2312,23.32739 0.61074,4.55346 0.19013,5.92212 -2.71183,8.82408 -4.75367,4.75367 -9.99947,4.4637 -17.09034,-0.94469 z m 330.30898,-9.3607 c -5.97013,-7.82724 -9.18792,-16.93712 -9.83362,-27.83992 -0.73435,-12.39991 0.17871,-16.62755 3.84229,-17.79032 3.8355,-1.21734 8.02364,3.02358 13.03126,13.19551 5.19354,10.54958 8.30839,22.49006 7.28531,27.92754 -1.80586,9.59784 -8.77093,11.78928 -14.32524,4.50719 z m -552.85899,-0.0519 c -1.78689,-0.89067 -4.10677,-3.40184 -5.15528,-5.58038 -2.26601,-4.7082 -2.40495,-18.97555 -0.22446,-23.04983 2.09639,-3.91713 7.57866,-5.1575 10.62207,-2.40325 2.61808,2.36933 5.50877,13.04688 5.50877,20.34815 0,8.71261 -4.91281,13.59537 -10.7511,10.68531 z m 23.51301,-18.96993 c -5.02985,-5.02985 -1.11749,-29.19637 5.42014,-33.47998 2.97935,-1.95215 3.42714,-1.92234 6.00039,0.39949 2.46687,2.22583 2.71431,3.63792 2.19197,12.50906 -1.02369,17.38567 -7.30534,26.8786 -13.6125,20.57143 z M 907.8845,882.29093 C 900.26419,876.44024 901.46494,856 909.42896,856 c 5.7534,0 12.10014,21.93761 7.63775,26.4 -2.03861,2.03861 -6.45323,1.98617 -9.18221,-0.10907 z M 533.87749,867.76618 c -4.83752,-4.57512 -8.94265,-10.23174 -12.18193,-16.78598 -4.2431,-8.58534 -4.95939,-11.4273 -5.44614,-21.60821 -0.67439,-14.10529 1.10427,-20.62453 6.36996,-23.34752 14.32367,-7.40706 38.71398,22.98969 38.71398,48.2478 0,12.92426 -5.51007,20.3944 -15.04316,20.3944 -4.33412,0 -6.23212,-1.05514 -12.41271,-6.90049 z m 342.88777,-0.0995 c -3.03501,-4.63852 -6.08844,-18.02756 -5.18887,-22.75274 0.44473,-2.33599 1.93418,-6.49726 3.30989,-9.24726 3.96455,-7.925 9.21216,-6.13906 13.72958,4.67264 2.76939,6.62809 2.75422,23.39646 -0.0248,27.36402 -2.80918,4.01066 -9.19059,3.99088 -11.82584,-0.0367 z M 487.95905,840.11781 c -6.22125,-6.53989 -9.29236,-15.3864 -9.29236,-26.76716 0,-14.71676 4.94651,-17.38356 12.90058,-6.95507 8.40871,11.02455 12.90093,34.49955 7.18708,37.55751 -4.11302,2.20122 -5.53273,1.69683 -10.7953,-3.83528 z m -180.90732,2.81505 c -2.90271,-1.84469 -5.71899,-10.70081 -5.6891,-17.89004 0.0468,-11.25516 6.68507,-23.70949 12.63738,-23.70949 7.61677,0 12.33036,16.2223 8.608,29.62526 -2.65428,9.55715 -10.20913,15.37241 -15.55628,11.97427 z m 143.02668,-4.13935 c -0.41011,-0.66357 -2.19128,-5.31357 -3.95817,-10.33334 -1.76689,-5.01976 -5.02196,-13.42894 -7.2335,-18.68707 -5.36856,-12.76422 -9.55339,-28.01315 -9.55339,-34.81124 0,-6.26523 3.22596,-9.1132 8.75176,-7.72631 6.0477,1.51787 18.20837,22.58744 21.98882,38.09778 2.55727,10.49196 2.05561,28.91026 -0.87567,32.14928 -2.37109,2.62002 -7.82615,3.40414 -9.11985,1.3109 z m 386.94311,-9.55495 c -1.27152,-0.74087 -3.21462,-4.47262 -4.318,-8.29279 C 829.25709,809.01341 832.84861,796 839.58821,796 c 3.97948,0 6.84337,5.11968 7.78559,13.91807 1.78583,16.6758 -2.182,24.08097 -10.35228,19.32049 z m 69.71299,-11.4552 c -3.8534,-4.89881 -4.4944,-8.33284 -3.79868,-20.35089 0.65416,-11.30025 3.17846,-17.25136 9.23104,-21.76245 4.93695,-3.67959 8.30157,-1.46967 11.73534,7.70788 3.48246,9.30772 3.47757,18.25339 -0.0142,25.95543 -5.44045,12.00038 -11.86957,15.16744 -17.15349,8.45003 z m -42.30924,-4.98616 c -3.49551,-3.00671 -3.72105,-3.84343 -3.6839,-13.66666 0.0443,-11.71645 1.72839,-16.02899 6.7518,-17.28979 4.91249,-1.23295 7.97594,2.61998 9.52666,11.98177 1.45608,8.79048 0.34644,15.79117 -3.10801,19.6083 -3.04977,3.36995 -4.98217,3.24088 -9.48655,-0.63362 z M 537.11975,788.04802 c -9.26663,-7.68022 -13.44802,-22.25765 -7.84012,-27.33273 4.01826,-3.63647 8.6024,-1.64014 14.66127,6.38476 7.01654,9.29335 9.70258,16.76094 7.57357,21.05565 -2.42083,4.88335 -8.42697,4.83842 -14.39472,-0.10768 z m -217.7108,-8.34469 c -4.37419,-6.24504 -0.82414,-20.29898 6.60337,-26.14146 4.77014,-3.7522 6.76425,-3.65114 9.47106,0.47998 2.77357,4.233 1.85456,14.1085 -2.01962,21.70251 -3.86715,7.58024 -10.25756,9.3803 -14.05481,3.95897 z m 156.96473,-3.66419 c -11.74727,-7.16263 -19.44082,-28.62129 -17.06865,-47.60747 0.71849,-5.75059 1.8436,-8.45207 4.71671,-11.32519 7.46375,-7.46375 15.50013,-4.18663 25.1635,10.26131 7.61435,11.3844 9.8532,17.96051 9.80057,28.78702 -0.0876,18.02523 -10.55902,27.23343 -22.61213,19.88433 z m 97.22699,0.39865 C 567.7103,773.53482 560.43159,764.96678 556.23837,756 c -4.4164,-9.44403 -5.80962,-28.73666 -2.44595,-33.87027 5.09587,-7.77729 14.62615,-5.03666 24.81862,7.13713 15.38957,18.38115 17.72012,42.05491 4.67659,47.50484 -5.41895,2.26418 -4.33974,2.30138 -9.68696,-0.33391 z m 262.93231,-5.45821 C 827.01152,764.62194 833.8841,736 844.93213,736 c 4.34135,0 6.12653,5.29731 5.39554,16.01063 -0.80367,11.77862 -5.03335,19.94854 -10.32763,19.94854 -1.1,0 -2.66018,-0.44082 -3.46706,-0.97959 z m 39.59479,-18.64625 c -1.74389,-1.43561 -3.40648,-5.15473 -4.32139,-9.66666 -1.79556,-8.85495 -0.38897,-15.12342 5.46478,-24.35384 3.31989,-5.23492 4.68625,-6.31283 8.00211,-6.31283 5.21055,0 7.70566,3.84909 8.85959,13.66725 1.15831,9.85541 -1.27504,18.56671 -6.83223,24.45904 -4.83121,5.12258 -7.08942,5.56866 -11.17286,2.20704 z m 45.33742,-3.80193 c -5.5233,-7.02174 -5.24731,-19.45073 0.65559,-29.52397 6.28579,-10.72664 14.73473,-11.86879 17.85519,-2.41371 4.19502,12.71102 0.3567,26.41828 -9.2726,33.11396 -4.4558,3.09831 -6.03384,2.89738 -9.23818,-1.17628 z M 427.85238,735.64745 c -2.60073,-2.02216 -7.00622,-10.59806 -14.46168,-28.15165 -6.10997,-14.38569 -6.22779,-18.01219 -0.70284,-21.63228 3.05333,-2.00062 3.56955,-2.00156 6.60594,-0.0121 4.49177,2.94313 13.30405,14.84571 16.93659,22.87597 3.20044,7.075 4.31288,23.27787 1.76963,25.77481 -2.29639,2.25457 -7.90657,2.8877 -10.14764,1.1452 z m 89.43759,-2.64734 c -23.50869,-11.86911 -30.48233,-70.33344 -8.38939,-70.33344 9.19321,0 24.45258,15.58317 28.49438,29.09903 4.54733,15.20633 2.3314,32.2489 -5.09724,39.20253 -5.36575,5.02265 -8.29779,5.41961 -15.00775,2.03188 z m -224.12561,-5.16909 c -2.45523,-2.45523 -2.7473,-3.93621 -2.17714,-11.03922 0.36218,-4.51196 1.89477,-10.62685 3.40576,-13.58863 5.54975,-10.87841 19.39491,-19.86113 25.54174,-16.57145 4.29396,2.29806 3.71912,12.30021 -1.2821,22.30854 -4.16553,8.33596 -16.84498,21.72641 -20.57279,21.72641 -1.1439,0 -3.35586,-1.27605 -4.91547,-2.83565 z m 685.98449,-5.65154 c -3.44899,-2.96669 -3.76243,-3.97571 -3.58828,-11.55135 0.2477,-10.77482 5.47574,-21.40709 13.55698,-27.57086 6.70936,-5.1174 9.80483,-5.46827 13.71815,-1.55495 6.1074,6.1074 0.3794,28.38623 -9.77878,38.03392 -6.2784,5.9629 -9.36644,6.54979 -13.90807,2.64324 z m 52.13415,-5.40253 c -6.1654,-9.40964 11.0801,-29.75259 28.3055,-33.38942 14.2487,-3.00834 13.4812,12.07642 -1.2902,25.35713 -12.5478,11.28158 -22.8745,14.35194 -27.0153,8.03229 z m -187.92255,-2.08036 c -4.3844,-4.84471 -0.59119,-18.20395 7.52628,-26.50669 2.25302,-2.30445 5.18235,-4.1899 6.50962,-4.1899 9.65362,0 8.30957,19.41308 -2.05396,29.66667 -4.36854,4.32219 -8.66802,4.69176 -11.98194,1.02992 z m -265.60659,-8.03923 c -4.4012,-1.77328 -6.23699,-6.40835 -6.33335,-15.99069 -0.13924,-13.84675 3.89482,-19.97769 12.14072,-18.45141 4.2192,0.78095 7.61391,9.98713 7.69717,20.87413 0.0668,8.73772 -0.26646,10.07791 -3.07275,12.3557 -3.39969,2.75944 -5.87722,3.04735 -10.43179,1.21227 z m 169.22972,-4.21288 c -7.76361,-3.76484 -17.91213,-15.16549 -17.38429,-19.52918 1.03052,-8.51938 11.15896,-5.93229 23.34205,5.96221 7.15263,6.9832 8.8129,11.50162 5.4587,14.85582 -2.21187,2.21187 -4.80002,1.91968 -11.41646,-1.28885 z m 51.34979,1.44872 c -1.28333,-0.74747 -2.33333,-2.26144 -2.33333,-3.36438 0,-1.10293 5.33441,-12.32312 11.85425,-24.93374 16.99685,-32.87519 18.69722,-39.07466 25.34482,-92.40595 7.4263,-59.57858 12.83222,-77.9075 21.94643,-74.41004 2.89504,1.11093 2.76813,5.65154 -0.461,16.49437 -2.79197,9.37491 -12.42036,64.85231 -11.65431,67.15046 0.8537,2.56109 11.36443,-19.85788 18.32691,-39.09059 9.03396,-24.95482 16.72854,-42.43136 26.71037,-60.66666 19.64903,-35.89582 26.76737,-52.91813 34.32663,-82.08627 3.58326,-13.82637 3.63283,-13.91634 7.89349,-14.32813 5.7562,-0.55634 6.49062,2.72023 3.68877,16.45719 -3.64282,17.86016 -9.17099,32.2577 -21.74164,56.62387 -14.91915,28.91838 -24.0252,49.26803 -51.60928,115.33334 -37.27027,89.26423 -52.78487,120.92685 -59.10649,120.62612 -0.46876,-0.0223 -1.90229,-0.65212 -3.18562,-1.39959 z m 94.40894,-13.52321 c -2.74367,-3.91714 -2.57869,-8.46595 0.55765,-15.37554 5.0795,-11.19054 14.42111,-15.99188 17.58857,-9.04007 2.11138,4.63397 -0.60865,17.21964 -4.95228,22.91444 -4.15105,5.44231 -9.96975,6.10434 -13.19394,1.50117 z m 342.12369,-0.63315 c -1.8474,-3.30122 0.4035,-8.16345 6.8225,-14.73684 5.7304,-5.86834 11.2048,-7.41012 14.0667,-3.96169 2.0972,2.52697 -2.3189,11.4244 -8.2589,16.63979 -5.3901,4.7326 -10.6538,5.59057 -12.6303,2.05874 z m -798.19935,-4.18621 c -10.43851,-6.36584 -20.79006,-24.39288 -21.76765,-37.90794 -0.99762,-13.792 5.94347,-16.71785 18.92177,-7.97602 9.31125,6.27181 14.55024,13.34583 18.26549,24.66326 3.48319,10.61054 2.78409,16.93419 -2.31563,20.94563 -4.27771,3.36484 -7.91237,3.44114 -13.10398,0.27507 z m 500.93094,-0.3805 c -6.86462,-2.53938 -7.61025,-16.71642 -1.52017,-28.90375 7.68686,-15.38276 18.07471,-19.61914 23.30527,-9.50435 4.51085,8.72302 0.81616,23.77601 -7.99947,32.59164 -6.10865,6.10864 -9.32609,7.46616 -13.78563,5.81646 z M 377.60366,665 c -18.93084,-36.04607 -19.45979,-37.20644 -18.00894,-39.50651 0.74943,-1.18809 2.7972,-2.16016 4.55061,-2.16016 2.79155,0 4.80084,3.132 16.15672,25.18448 7.13279,13.85146 13.30315,26.23824 13.71193,27.52617 0.81114,2.55567 -2.46506,6.62269 -5.33492,6.62269 -0.98843,0 -5.97236,-7.95 -11.0754,-17.66667 z m 751.71214,8.97881 c -2.1042,-2.5354 -1.0513,-18.41759 1.4182,-21.3932 1.0242,-1.23415 3.3137,-1.89476 5.7313,-1.6537 3.1932,0.31841 4.2513,1.22858 5.117,4.40142 1.4244,5.2208 -0.026,15.3726 -2.6187,18.33334 -2.5133,2.86968 -7.3942,3.0276 -9.6478,0.31214 z M 302.71359,662.75432 c -1.83319,-3.42536 -1.75136,-5.02061 0.67699,-13.19778 3.69078,-12.4282 13.23335,-19.89771 18.03252,-14.11507 2.17708,2.62323 2.12007,13.7212 -0.0926,18.01916 -5.20497,10.11045 -15.44423,15.22195 -18.61694,9.29369 z m 564.82643,0.14069 c -2.86683,-3.16781 -2.75711,-8.88757 0.29957,-15.61684 2.47586,-5.45058 9.66588,-12.6115 12.66275,-12.6115 8.13705,0 5.28444,20.58793 -3.84794,27.77146 -4.489,3.53106 -6.2523,3.61944 -9.11438,0.45688 z m -325.86923,-6.80385 c -8.98038,-6.50536 -16.33743,-18.1689 -16.33743,-25.90062 0,-5.22239 4.22472,-9.42454 8.41726,-8.37228 7.72768,1.93953 23.58274,21.06629 23.58274,28.44906 0,3.46654 -5.412,9.73268 -8.40601,9.73268 -1.0233,0 -4.28875,-1.75898 -7.25656,-3.90884 z m 211.64829,-0.42449 c -20.94302,-12.55289 -15.21715,-29.66257 6.33295,-18.9237 12.03652,5.99805 19.47856,16.92647 14.74801,21.65703 -3.20121,3.20121 -13.38223,1.88115 -21.08096,-2.73333 z m 272.16442,1.81676 c -1.5492,-1.54922 -2.8134,-3.56676 -2.8093,-4.48343 0.06,-13.50964 20.5631,-33 34.7143,-33 13.4281,0 11.8254,13.86337 -3.1891,27.5858 -12.1321,11.0881 -23.5798,15.03379 -28.7159,9.89763 z M 479.11625,650.8411 c -12.88416,-9.338 -20.11213,-27.35593 -14.00128,-34.9025 6.59997,-8.15063 23.24732,2.2555 30.59412,19.12414 3.79951,8.72388 0.54527,17.50806 -7.0424,19.00957 -3.11479,0.61638 -5.22833,-0.0987 -9.55044,-3.23121 z m -206.39134,-1.44343 c -2.09446,-2.31435 -2.17432,-3.35581 -0.72163,-9.41131 2.66382,-11.10404 10.00328,-17.86063 15.94637,-14.67998 3.97102,2.12522 3.65555,10.85786 -0.65814,18.21862 -5.0304,8.58374 -10.21976,10.67588 -14.5666,5.87267 z m 421.24858,-9.74156 c -12.56588,-12.87865 -14.863,-18.9924 -8.42964,-22.43542 6.52455,-3.49184 25.94799,17.13143 24.88081,26.41773 -0.33978,2.95665 -1.19186,3.78255 -4.26455,4.13353 -3.22182,0.36801 -5.18347,-0.93838 -12.18662,-8.11584 z m 409.52631,6.63044 c -3.0805,-2.25247 -4.3065,-11.78664 -2.1768,-16.92805 1.302,-3.14339 2.4978,-4.02517 5.4586,-4.02517 4.9014,0 6.5518,3.15672 6.5518,12.5321 0,5.92593 -0.5065,7.64514 -2.579,8.75432 -3.3441,1.78972 -4.4189,1.74036 -7.2546,-0.3332 z m 169.3557,-0.28823 c -2.4939,-2.49392 -1.1061,-8.14027 3.8366,-15.60922 8.4585,-12.78163 19.6403,-8.10836 12.7791,5.34082 -2.859,5.60402 -9.8192,12.27008 -12.8115,12.27008 -0.9914,0 -2.7033,-0.90076 -3.8042,-2.00168 z m -293.7552,-2.77685 c -3.04573,-3.04573 -3.35644,-4.19466 -2.67968,-9.90881 1.00763,-8.50785 4.81167,-15.70644 11.48671,-21.73694 6.91834,-6.2503 11.22556,-6.45352 14.21597,-0.67071 5.1263,9.9131 -1.8683,28.06684 -13.05704,33.88834 -4.92841,2.56425 -5.99862,2.39546 -9.96596,-1.57188 z m -72.38668,-7.13381 c -2.18908,-4.09034 -1.62161,-9.71691 1.61976,-16.06042 5.94687,-11.63828 14.46888,-13.83689 15.43599,-3.98235 0.71521,7.28778 -0.99031,13.06769 -5.30655,17.98362 -4.58591,5.22306 -9.58686,6.09952 -11.7492,2.05915 z m -343.39905,-5.43593 c -6.52335,-5.1841 -10.6791,-10.7364 -15.45726,-20.65173 -4.70925,-9.77231 -4.77961,-11.86555 -0.54133,-16.10383 3.13781,-3.13781 3.5246,-3.20806 7.19951,-1.30769 5.58351,2.88734 12.91136,11.96786 18.21819,22.57559 5.17439,10.343 5.47669,12.32381 2.52408,16.53926 -2.80417,4.0035 -5.92832,3.72842 -11.94319,-1.0516 z m -180.19043,-4.3184 c -6.44587,-7.23157 -12.45746,-22.23673 -12.45746,-31.09429 0,-6.1457 3.92331,-10.54869 8.39862,-9.42546 5.28004,1.32521 13.10485,18.25456 13.95972,30.20251 0.58877,8.22884 0.3922,9.10729 -2.48955,11.12575 -3.99781,2.80017 -4.21595,2.77637 -7.41133,-0.80851 z M 409.619,609.92498 c -6.20787,-7.53121 -9.18887,-21.82176 -5.35231,-25.65831 6.51534,-6.51534 18.4,7.88897 18.4,22.30097 0,9.29267 -6.72824,11.02393 -13.04769,3.35734 z m 389.75279,-0.5492 c -2.78312,-3.07531 -4.23137,-14.3756 -2.81201,-21.9414 0.97935,-5.22039 6.64138,-12.76771 9.57838,-12.76771 1.04559,0 3.09001,1.95 4.54316,4.33333 3.50464,5.74803 3.67848,20.93703 0.31665,27.66667 -2.83992,5.68487 -7.872,6.85744 -11.62618,2.70911 z m 157.95991,0.6222 c -2.85841,-3.44417 -1.00965,-15.72863 3.30383,-21.95298 9.94684,-14.3533 20.08413,-2.56782 11.83708,13.76163 -4.70396,9.31401 -11.26383,12.86294 -15.14091,8.19135 z m -460.14265,-4.65547 c -6.9841,-7.34181 -8.92033,-19.82176 -3.59272,-23.15683 9.16243,-5.73565 23.89401,20.19386 15.11855,26.61063 -3.97957,2.90993 -6.06728,2.28433 -11.52583,-3.4538 z m 220.81098,3.10865 c -8.13061,-4.28635 -14.23721,-11.95873 -15.94303,-20.03096 -0.69773,-3.30179 -0.28479,-4.85904 1.85617,-7 4.0941,-4.0941 8.6629,-3.43076 14.84625,2.15552 9.37545,8.47015 13.33406,20.14036 8.47871,24.99571 -2.58633,2.58633 -4.14247,2.56607 -9.2381,-0.12027 z m -70.42359,-3.09986 c -11.40128,-7.23047 -17.72975,-21.7826 -11.80476,-27.14465 4.82417,-4.36581 11.5964,-1.69661 20.04366,7.89998 8.13202,9.23847 9.03017,18.53175 2.09632,21.69103 -4.20392,1.91543 -3.01284,2.19736 -10.33522,-2.44636 z m 228.75231,1.11074 c -5.40174,-5.40173 2.19972,-19.76875 13.56423,-25.63687 4.70434,-2.42911 8.77373,-0.82085 8.77373,3.46744 0,10.89278 -16.87094,27.63645 -22.33796,22.16943 z M 754.049,604.05411 c -3.54063,-3.91235 -4.33376,-14.12611 -1.35273,-17.42011 1.31105,-1.4487 3.44719,-2.634 4.74698,-2.634 5.59592,0 11.01122,13.01573 8.08623,19.43537 -1.84769,4.05524 -8.06713,4.39044 -11.48048,0.61874 z m -476.71565,-2.72078 c -3.19647,-3.19646 -3.29673,-5.39436 -0.65228,-14.29917 1.34668,-4.53478 3.57184,-8.15064 6.71306,-10.90867 5.35254,-4.69959 5.82159,-4.81377 9.30662,-2.26546 5.17123,3.7813 1.26203,20.46277 -6.28313,26.8116 -4.77952,4.0217 -5.66013,4.08585 -9.08427,0.6617 z m 167.91063,-6.21262 c -18.37067,-17.18362 -23.85784,-52.49657 -8.14872,-52.44153 4.7659,0.0167 16.29763,6.76077 20.93339,12.24242 8.77685,10.37838 13.70726,29.39249 9.96455,38.42822 -0.93617,2.2601 -3.38781,4.98097 -5.4481,6.04639 -6.45841,3.33978 -10.12971,2.43252 -17.30112,-4.2755 z M 343.9385,589.66667 c -11.52616,-17.9461 -15.77216,-34.3983 -10.29277,-39.88199 7.99199,-7.99827 23.91207,15.50951 25.42892,37.54865 0.65252,9.48072 -0.64717,12.66667 -5.16727,12.66667 -2.69643,0 -4.59831,-1.97141 -9.96888,-10.33333 z m 748.051,5.65391 c -2.511,-3.02556 -0.7822,-12.02947 3.3498,-17.44689 6.9292,-9.08458 15.0669,-3.16243 11.5919,8.43591 -2.8284,9.4404 -10.6637,14.16568 -14.9417,9.01098 z m -72.4495,-9.7589 c -4.5,-4.97243 -0.9772,-19.10302 6.7881,-27.22835 4.1708,-4.36413 6.1076,-4.56438 9.6719,-1 5,4.99992 2.6707,18.31173 -4.5423,25.95973 -4.9341,5.23173 -8.6039,5.9303 -11.9177,2.26862 z m -96.88265,-4.9063 c -3.98797,-4.8052 2.169,-18.52024 10.27581,-22.89002 4.07306,-2.19549 4.39034,-2.1876 7,0.17411 1.50345,1.36061 2.72037,3.73084 2.70427,5.26718 -0.0427,4.07811 -4.52441,13.29646 -8.0704,16.60005 -3.5662,3.32242 -9.50541,3.74565 -11.90968,0.84868 z m 67.51032,-10.67823 c -3.40386,-3.40386 -2.64454,-11.10191 1.87186,-18.97715 3.1287,-5.45551 4.7372,-7 7.29008,-7 4.99259,0 7.84409,5.30471 6.75519,12.56655 -1.7529,11.68874 -10.37479,18.95294 -15.91713,13.4106 z m -485.57198,-4.88092 c -4.98599,-3.8497 -6.69087,-5.91135 -9.95903,-12.04311 -4.49478,-8.43316 -2.47127,-15.71979 4.36542,-15.71979 6.48845,0 19.237,18.88193 18.11327,26.82765 -0.63743,4.50715 -7.25336,5.00137 -12.51966,0.93525 z m 219.89212,0.34564 c -9.24545,-5.6376 -14.3822,-16.35202 -10.60402,-22.11825 6.03855,-9.216 23.44958,3.86012 23.44958,17.61122 0,7.22306 -5.32649,9.09193 -12.84556,4.50703 z m -335.97533,-4.68771 c -4.7515,-2.0681 -7.17913,-7.48521 -7.17913,-16.01979 0,-12.29618 8.63068,-11.42458 15.17737,1.53275 2.7126,5.36881 2.73815,9.64168 0.0804,13.43621 -2.40198,3.4293 -2.56523,3.45054 -8.0786,1.05083 z m 280.54004,0.53342 c -4.7496,-2.83484 -6.7051,-19.55755 -3.1018,-26.52555 3.45292,-6.67721 9.65507,-6.87437 12.67982,-0.40307 2.53165,5.41635 3.18814,20.30794 1.07159,24.30771 -1.9193,3.62702 -6.90725,4.85457 -10.64961,2.62091 z m 590.22738,-1.37409 c -3.134,-5.07104 5.8846,-18.81636 13.6197,-20.75775 4.2219,-1.05962 7.5595,2.52707 6.304,6.77432 -2.9837,10.09298 -16.4757,19.56236 -19.9237,13.98343 z m -490.60045,-5.20456 c -4.96907,-0.91063 -7.95341,-6.27127 -6.14269,-11.03383 1.70457,-4.48336 9.18279,-11.69398 14.38016,-13.86558 7.57543,-3.16521 17.68421,-1.83712 20.72937,2.72342 2.04446,3.06187 0.87341,7.5417 -3.17751,12.15544 -6.81598,7.76298 -16.84483,11.65973 -25.78933,10.02055 z m 287.80645,-5.98533 c -6.7678,-4.7404 -7.475,-24.05532 -1.2685,-34.64595 3.5478,-6.05389 10.5063,-12.74432 13.2549,-12.74432 0.8806,0 3.0011,0.98064 4.7123,2.17919 2.967,2.07818 3.0854,2.77339 2.5553,15 -0.6073,14.00807 -3.5055,22.70771 -9.5929,28.79505 -3.8582,3.85823 -5.7735,4.13896 -9.6611,1.41603 z m 66.4656,-1.33106 c -1.4165,-1.80076 -4.5941,-9.15076 -7.0614,-16.33333 -4.3498,-12.66305 -4.4845,-13.68614 -4.4415,-33.72588 0.04,-18.69411 0.3953,-21.81202 3.7202,-32.66666 4.9486,-16.15518 15.0967,-35.1362 27.3636,-51.18065 5.5739,-7.29029 15.6113,-20.42926 22.3054,-29.1977 6.6941,-8.76844 14.657,-20.12689 17.6952,-25.241 12.1537,-20.45772 22.1486,-51.82996 23.697,-74.38065 1.1159,-16.25209 1.9648,-18.2787 7.4359,-17.75121 l 4.3342,0.41787 -0.2546,12.3435 c -0.4833,23.43711 -6.588,47.20091 -18.4079,71.6565 -8.4901,17.56614 -16.9,30.29741 -34.9838,52.95997 -22.4435,28.12615 -29.9173,40.67461 -37.1491,62.37337 -3.4733,10.42157 -3.7779,12.94233 -3.7861,31.33333 -0.01,19.84708 0.029,20.10061 4.953,33.15905 5.7064,15.13372 5.627,14.65189 2.8665,17.41238 -2.9474,2.94745 -5.3046,2.6121 -8.2866,-1.17889 z M 361.02868,547 c -4.97883,-5.66337 -8.03516,-14.24908 -8.11558,-22.79798 -0.07,-7.44249 0.33227,-8.90622 3.05334,-11.10961 1.72369,-1.39576 4.08639,-2.36254 5.25045,-2.14841 6.51745,1.19892 12.7136,30.93505 7.52675,36.1219 -2.89039,2.89039 -5.13284,2.87123 -7.71496,-0.0659 z m 268.60074,-0.68486 c -8.36989,-8.90934 -9.1785,-25.05326 -1.24915,-24.9394 3.83599,0.0551 6.62059,2.25276 10.11267,7.98117 3.15429,5.1743 3.86807,15.74878 1.24042,18.37642 -2.51163,2.51163 -7.0045,1.88101 -10.10394,-1.41819 z m -369.5825,-0.89415 c -3.62007,-6.76417 1.17973,-21.50221 8.27492,-25.40858 10.62915,-5.85205 12.4191,13.26846 2.2188,23.70157 -4.76079,4.86945 -8.47765,5.47407 -10.49372,1.70701 z m 961.61978,0.36264 c -2.2341,-0.90148 -2.1102,-6.39159 0.247,-10.95004 2.5584,-4.94728 11.8661,-13.22683 16.0498,-14.27688 8.1299,-2.04047 9.6346,3.3501 3.594,12.87512 -6.6125,10.42681 -13.7213,14.84124 -19.8908,12.3518 z m -264.18073,-6.62682 c -2.81518,-1.97183 -3.05675,-2.97245 -2.56857,-10.63924 0.61558,-9.66752 5.31728,-17.8917 12.69029,-22.19777 4.1671,-2.43371 4.28291,-2.42925 6.98154,0.26938 6.20764,6.20764 0.8841,26.51842 -8.44098,32.20469 -5.02672,3.0652 -4.81681,3.05641 -8.66228,0.36294 z m -53.89979,-0.69525 c -2.8242,-1.5805 -2.99396,-9.16075 -0.32091,-14.32985 C 906.08187,518.685 914.24257,512 918.07502,512 c 2.22621,0 3.8054,1.07515 4.80654,3.27242 1.24597,2.73461 0.89904,4.48238 -2.11091,10.6345 -4.69595,9.59819 -12.4043,15.22976 -17.18447,12.55464 z m -594.30633,-9.49095 c -4.37159,-9.34188 -8.42405,-26.17472 -7.11976,-29.57363 0.45118,-1.17575 2.05953,-2.80093 3.57412,-3.61151 2.28411,-1.22242 3.167,-0.9635 5.17647,1.51808 1.33247,1.64553 2.42267,4.46857 2.42267,6.27342 0,1.80485 1.90029,9.01232 4.22287,16.0166 4.50732,13.59292 4.26454,16.66294 -1.38416,17.50246 -2.39298,0.35564 -3.57621,-1.0393 -6.89221,-8.12542 z m 144.98537,3.14736 c -6.01094,-6.65339 -7.25311,-9.04271 -9.04504,-17.3982 -1.22938,-5.7324 -1.11956,-7.34138 0.68952,-10.10239 4.62691,-7.06155 12.30607,-2.179 18.95086,12.04929 3.79032,8.11611 4.06749,15.41351 0.70114,18.46001 -3.70263,3.35084 -6.13671,2.70254 -11.29648,-3.00871 z m 140.55731,1.70777 c -3.81666,-2.67329 -6.8225,-9.55496 -6.8225,-15.61966 0,-10.06554 9.18181,-9.80213 14.33333,0.41121 3.70234,7.3402 3.79109,11.25829 0.33334,14.71604 -3.22816,3.22816 -3.87994,3.26907 -7.84417,0.49241 z M 702.6667,522.66667 c -3.45442,-3.45442 -3.36816,-6.5695 0.33333,-12.03685 6.17795,-9.12523 23.72385,-13.90979 31.37,-8.55421 6.82116,4.77772 1.92941,15.64826 -9.47757,21.06123 -6.7171,3.18747 -18.82424,2.93135 -22.22576,-0.47017 z m 476.0144,-0.64936 c -3.6041,-4.34264 2.7787,-16.66717 10.7335,-20.72542 6.2715,-3.19944 10.0526,-3.34056 11.6782,-0.43585 1.6549,2.95719 0.543,6.74748 -3.8941,13.27449 -6.1507,9.04778 -14.576,12.63615 -18.5176,7.88678 z m -846.36524,-5.41282 c -3.77507,-2.64417 -7.53687,-15.23148 -6.38576,-21.36738 0.92988,-4.95668 4.72316,-7.84425 8.66229,-6.59402 3.59519,1.14107 6.74096,10.16496 6.74096,19.33698 0,6.4717 -0.47324,8.17938 -2.57901,9.30635 -3.24084,1.73445 -2.94368,1.76592 -6.43848,-0.68193 z m 480.44608,-2.69973 c -4.58996,-4.58996 -1.28842,-16.49417 6.90713,-24.90476 2.67969,-2.75 5.90754,-5 7.173,-5 6.59993,0 8.44266,9.54599 3.67795,19.05312 -5.74562,11.46435 -12.82146,15.78826 -17.75808,10.85164 z m 182.59265,-1.40736 c -3.03576,-3.03576 -2.20526,-12.52097 1.82532,-20.84704 3.43679,-7.09943 5.99549,-8.49737 10.34139,-5.64987 2.7043,1.77195 3.1423,3.13185 3.1235,9.69691 -0.04,13.8709 -8.7019,23.38828 -15.29021,16.8 z m -586.98785,-0.90703 c -3.80617,-2.11497 -9.20522,-9.28669 -12.7406,-16.9237 -2.27402,-4.91226 -2.79405,-8.73823 -2.86851,-21.10411 l -0.0909,-15.10411 4.35436,-3.89589 c 5.26728,-4.71268 11.68621,-5.1543 16.7719,-1.15389 1.91724,1.5081 6.03246,7.88119 9.14494,14.16242 5.15176,10.3967 5.66096,12.33213 5.6805,21.59133 0.0248,11.77185 -2.53943,18.3679 -8.5123,21.89616 -4.5119,2.66525 -7.64456,2.80716 -11.73935,0.53179 z m 101.93273,-4.81099 c -5.05061,-6.00231 -8.11952,-16.47252 -7.17235,-24.46994 1.21147,-10.22895 7.01158,-14.78148 11.86062,-9.30944 3.19389,3.60424 8.43025,28.98931 6.88917,33.39767 -1.87141,5.35333 -7.24502,5.5305 -11.57744,0.38171 z m -34.57916,-1.05123 c -7.52919,-7.87799 -11.51238,-23.36136 -7.38695,-28.71444 5.77863,-7.49824 16.36272,1.70192 19.84161,17.24722 2.1456,9.58755 0.60214,14.25851 -4.89066,14.80055 -2.96026,0.29212 -4.92768,-0.57489 -7.564,-3.33333 z m -187.89037,-6.60264 c -2.57232,-3.10351 -1.95222,-14.10899 1.12956,-20.04743 1.40626,-2.7098 4.19316,-6.1486 6.19311,-7.64178 3.34836,-2.49992 3.92177,-2.55537 7.24184,-0.70037 7.14866,3.99413 4.19365,19.2721 -5.26728,27.23295 -4.67222,3.93141 -6.78004,4.19364 -9.29723,1.15663 z m 377.04341,-5.56383 c -8.06077,-8.90705 5.63544,-30.63941 20.8674,-33.11122 10.57809,-1.71659 15.11514,3.06063 12.54042,13.20425 -3.61256,14.23235 -26.30572,27.7547 -33.40782,19.90697 z m 596.12675,0.99819 c -3.4773,-2.02529 -2.8482,-7.89269 1.5978,-14.90329 4.6312,-7.30267 13.7173,-12.82809 16.8371,-10.23892 5.3315,4.42473 -1.8466,19.58121 -11.7021,24.70903 -4.2075,2.18919 -3.7666,2.16083 -6.7328,0.43318 z m -495.61982,-2.47221 c -6.27689,-11.72849 9.35006,-37.42099 22.76057,-37.42099 6.01306,0 7.85919,2.46462 7.85919,10.49221 0,9.77103 -5.91216,20.22273 -14.74622,26.06884 -6.38236,4.22364 -13.85664,4.62855 -15.87354,0.85994 z m 167.49308,-2.52598 c -3.24952,-3.59068 -2.69302,-10.79993 1.46002,-18.91395 4.4944,-8.78098 6.84505,-10.42055 11.74144,-8.1896 3.51016,1.59934 3.59501,1.89865 2.92048,10.30186 -1.19601,14.89985 -9.76309,23.82814 -16.12194,16.80169 z m -316.46227,-0.24114 c -4.78024,-1.9255 -7.73161,-7.49153 -5.99424,-11.30464 2.48809,-5.46076 7.66069,-7.85219 16.79816,-7.76623 17.89895,0.16839 25.67328,11.05584 12.80582,17.93371 -4.98225,2.66309 -18.23657,3.30149 -23.60974,1.13716 z m -308.30143,-17.2109 c -3.01168,-3.01168 -4.81867,-14.73395 -3.56251,-23.11064 1.95352,-13.02699 12.93803,-28.999 19.94363,-28.999 1.93008,0 4.70924,1.2 6.1759,2.66667 7.0713,7.07129 -1.01276,40.97695 -11.79158,49.45558 -4.10995,3.23288 -7.52395,3.22888 -10.76544,-0.0126 z m 230.98827,-0.89053 c -3.12099,-3.12098 -3.38186,-4.1721 -2.75398,-11.09652 1.16898,-12.89162 7.82094,-22.43994 17.28853,-24.81615 8.52419,-2.13943 12.07138,11.84668 6.26283,24.69356 -3.50872,7.7603 -10.20355,14.66667 -14.21745,14.66667 -1.72281,0 -4.68378,-1.5514 -6.57993,-3.44756 z m 435.58316,1.06064 c -2.44891,-1.98301 -2.94771,-3.74122 -2.94771,-10.39038 0,-9.01171 2.1584,-15.20166 7.51647,-21.55604 4.22614,-5.01196 7.31603,-5.46138 10.83264,-1.57557 5.28391,5.83865 1.5118,24.43588 -6.60213,32.54981 -3.99683,3.99682 -4.93587,4.10057 -8.79927,0.97218 z m -616.34643,-1.58806 c -4.54964,-3.57876 -8.33513,-17.52819 -7.24788,-26.7083 0.80173,-6.76936 6.11381,-18.25101 10.10918,-21.85019 6.96238,-6.27197 14.85729,-2.36057 17.50397,8.67205 4.31287,17.97807 -3.68424,42.52808 -13.85343,42.52808 -1.73444,0 -4.66477,-1.18874 -6.51184,-2.64164 z m 366.04111,-2.96676 c -3.64406,-1.75935 -6.13854,-8.82704 -4.91438,-13.92402 2.8686,-11.94379 13.44575,-23.13424 21.86637,-23.13424 4.52178,0 9.33894,5.83672 9.33894,11.31555 0,9.4084 -8.31069,21.94569 -16.93634,25.54972 -4.99831,2.08843 -5.41101,2.09694 -9.35459,0.19299 z m 454.55763,-2.65826 c -5.32,-5.32 5.5885,-22.4 14.3062,-22.4 7.1145,0 6.1403,10.45565 -1.7799,19.10249 -4.6283,5.05292 -9.4908,6.33297 -12.5263,3.29751 z m -155.8462,-3.74264 c -4.6778,-1.88472 -5.9627,-6.07036 -5.9355,-19.33471 0.03,-14.8005 2.8669,-22.86228 10.7537,-30.56353 4.1716,-4.07354 5.8758,-4.87785 9.5842,-4.52347 3.9365,0.37617 4.7382,1.10966 6.3004,5.76435 4.1421,12.34217 -1.1125,35.0048 -10.3734,44.74012 -5.3077,5.57944 -5.7693,5.75453 -10.3294,3.91724 z m 44.1677,-4.55461 c -5.1472,-3.77311 -1.5388,-25.66762 5.1444,-31.21416 2.6743,-2.21946 7.0285,-0.12549 8.3415,4.01149 2.6802,8.44453 -1.5282,24.62013 -7.1943,27.65255 -3.3814,1.80963 -3.1906,1.82327 -6.2916,-0.44988 z m 161.634,1.00836 c -0.4888,-0.48889 -0.8888,-2.36807 -0.8888,-4.17596 0,-8.22185 13.6105,-20.79651 21.6687,-20.01948 5.7646,0.55588 6.3951,4.84192 1.7456,11.86777 -6.1068,9.22794 -18.7214,16.13167 -22.5255,12.32767 z m -642.68222,-4.2161 c -7.4134,-8.19171 4.73285,-25.21064 18.96886,-26.57854 5.74733,-0.55225 6.68874,-0.24299 9.27712,3.0476 1.58439,2.01422 2.8807,4.8111 2.8807,6.21528 0,5.9774 -7.94985,15.6393 -15.0868,18.33582 -5.91213,2.23376 -13.53382,1.74901 -16.03988,-1.02016 z M 474.96031,453 c -5.3098,-6.47745 -4.23298,-21.62846 1.64199,-23.10298 6.80844,-1.70881 11.39772,4.03999 11.39772,14.27743 0,7.73197 -1.89861,10.49222 -7.21698,10.49222 -2.45108,0 -5.0713,-0.75 -5.82273,-1.66667 z m -37.66076,-4.37406 c -4.23708,-5.10537 0.20777,-24.20578 6.16488,-26.49174 1.23457,-0.47375 3.66013,0.0661 5.39013,1.19962 2.7096,1.7754 3.14546,3.13795 3.14546,9.83307 0,5.88027 -0.74072,8.87487 -3.04307,12.3026 -3.45003,5.13639 -8.80976,6.58764 -11.6574,3.15645 z M 658.6667,435.66317 c -2.36486,-1.22309 -3.45873,-3.02777 -3.76491,-6.21141 -0.64904,-6.74868 0.67236,-10.30601 6.03188,-16.23836 5.5724,-6.16798 10.06845,-8.81845 15.75443,-9.2874 7.48797,-0.61757 9.91895,0.0768 12.14081,3.46777 7.61895,11.62798 -17.2577,34.94351 -30.16221,28.2694 z M 397.33335,424 c -6.98866,-6.98866 1.03098,-25.92406 12.14166,-28.66801 11.1063,-2.74286 9.91781,20.55562 -1.46192,28.6587 -4.73856,3.37416 -7.31265,3.3764 -10.67974,0.009 z m 364.00002,-1.33333 c -9.21438,-9.21438 5.92889,-32 21.26712,-32 4.81412,0 9.4117,4.0888 9.37027,8.33333 -0.0509,5.21579 -4.68823,13.48721 -10.49869,18.72617 -8.87983,8.00642 -15.4588,9.6204 -20.1387,4.9405 z M 808.26671,422.4 c -2.44681,-2.44681 -1.89814,-7.71256 1.56989,-15.06667 4.13736,-8.77345 8.78011,-12.99787 13.6667,-12.43529 7.95651,0.91601 6.99347,14.18819 -1.73015,23.84419 -4.93243,5.45961 -10.26142,6.90279 -13.50644,3.65777 z m 145.79102,-2.88777 c -2.19579,-2.19579 -3.43496,-5.39975 -4.07753,-10.54269 -1.72225,-13.78443 2.09713,-26.29127 10.63679,-34.83093 9.75577,-9.75576 17.81977,-3.97882 19.03434,13.63595 0.76964,11.16207 -2.9733,21.99883 -10.23478,29.63223 -5.89041,6.1921 -10.62335,6.84091 -15.35882,2.10544 z m 144.03757,-2.9408 c -4.3272,-4.32718 -1.6156,-23.31463 4.3182,-30.2381 5.1148,-5.96781 10.9463,-0.72138 10.8614,9.77166 -0.1297,16.01452 -8.4344,27.21165 -15.1796,20.46644 z m 194.597,-1.40305 c -6.5347,-6.53463 8.8397,-28.67687 16.912,-24.35673 5.0438,2.69939 0.9677,16.33187 -6.8501,22.91018 -4.9515,4.16641 -7.0416,4.46689 -10.0619,1.44655 z M 489.00002,408.0453 c -11.78681,-9.34002 8.94946,-24.90581 26.78196,-20.10401 10.57311,2.84704 10.58171,10.87668 0.0195,18.1963 -7.35416,5.09643 -21.50617,6.10376 -26.80146,1.90771 z m -178.3187,-1.35127 c -3.19138,-5.96315 5.49753,-23.80193 13.76295,-28.25607 3.71542,-2.00219 7.55575,2.15214 7.55575,8.17356 0,13.76715 -16.42028,29.23527 -21.3187,20.08251 z m 41.58536,-1.62736 c -2.06339,-2.06339 -2.0487,-10.59299 0.0302,-17.53172 2.15496,-7.19262 11.39597,-16.86828 16.11051,-16.86828 10.42798,0 8.91067,17.96338 -2.59283,30.69636 -4.97337,5.50493 -10.29248,6.95904 -13.54788,3.70364 z m 247.73335,-0.11673 c -6.05515,-3.0471 -4.05686,-15.66548 3.57358,-22.56576 11.18784,-10.11724 27.71694,-6.33049 25.0653,5.74235 -1.26419,5.75578 -10.68718,14.87661 -17.46024,16.90035 -6.72475,2.00931 -7.03715,2.00716 -11.17864,-0.0769 z m 112.50028,0.39117 c -1.55819,-0.62242 -3.49238,-3.02298 -4.29821,-5.33457 -4.75334,-13.63546 11.49764,-34.47523 24.36552,-31.2456 5.95305,1.49412 7.58172,7.84655 4.68558,18.27551 -3.07028,11.05598 -17.03917,21.38592 -24.75289,18.30466 z m -273.83362,-0.93308 c -8.55192,-3.05638 -6.39501,-23.91117 3.11765,-30.1441 8.83037,-5.78588 15.54902,-2.84435 15.54902,6.80761 0,6.87521 -6.02469,18.57558 -11.18514,21.72233 -4.42976,2.70119 -4.43612,2.70256 -7.48153,1.61416 z m 419.29928,-6.26806 c -1.88394,-1.37758 -2.48575,-3.31418 -2.32018,-7.46625 0.43227,-10.84008 10.03818,-24.13996 19.47792,-26.96817 4.63571,-1.38889 5.40283,-1.2795 7.07627,1.00907 4.82068,6.59267 -5.91626,27.52242 -17.13373,33.39914 -4.38247,2.29593 -3.99818,2.29451 -7.10028,0.0262 z m -310.63261,-3.04206 c -10.56191,-2.79841 -9.09001,-17.05958 2.76967,-26.83533 13.79509,-11.37108 34.55637,-7.72199 30.0248,5.27728 -5.03086,14.43152 -20.73317,24.75373 -32.79447,21.55805 z m 674.33334,-1.31428 c -5.365,-2.16482 2.1557,-16.83071 10.7132,-20.89151 13.6278,-6.4668 15.9493,3.15969 3.7129,15.3961 -6.0979,6.09792 -9.6137,7.43722 -14.4261,5.49541 z m 55.3334,-10.5438 c -1.9301,-1.96402 -0.9723,-8.24876 1.7927,-11.76388 4.5029,-5.72462 17.1194,-11.11595 21.805,-9.3179 6.7815,2.60229 4.8641,10.04919 -4.2776,16.61427 -5.9309,4.25927 -17.0077,6.82063 -19.3201,4.46751 z m -279.12674,-4.71687 c -3.78372,-4.1865 -3.56704,-22.4451 0.35432,-29.85629 3.88262,-7.33801 7.46332,-10.28765 11.85592,-9.76661 9.1221,1.08203 12.0568,15.99981 5.9311,30.14888 -4.9418,11.41433 -12.7176,15.47513 -18.14134,9.47402 z m -351.69352,-2.61973 c -10.63981,-8.36928 5.15499,-29.25089 22.1107,-29.23158 6.36109,0.007 13.04283,4.46844 13.04283,8.7083 0,7.41725 -7.18287,15.91741 -17.33334,20.51217 -7.69177,3.48179 -13.4034,3.48535 -17.82019,0.0111 z m 483.03986,-2.78227 c -3.6247,-6.77294 1.4765,-23.3851 10.1186,-32.95083 8.4339,-9.33534 14.8622,-6.65673 14.4068,6.00322 -0.6514,18.11311 -18.6623,37.90282 -24.5254,26.94761 z m -735.19012,-1.08829 c -5.63644,-6.2282 1.2353,-22.32905 12.79474,-29.97873 6.58017,-4.35455 16.06166,-5.9717 19.29234,-3.29047 2.77111,2.29981 1.67107,9.79591 -2.69235,18.34672 -7.33789,14.37974 -22.78782,22.22303 -29.39473,14.92248 z m 933.99082,-1.3457 c -3.2857,-3.28568 -3.3306,-4.50504 -0.3537,-9.61081 2.5352,-4.34811 13.0295,-10.40949 18.0224,-10.40949 9.834,0 7.6756,11.75868 -3.3776,18.40015 -7.0281,4.22297 -11.2138,4.69749 -14.2911,1.62015 z m -537.81371,-5.12529 c -8.21181,-9.07394 6.87963,-25.45619 23.52062,-25.5324 7.81429,-0.0358 13.71954,4.63574 12.21061,9.65959 -1.31937,4.39274 -9.73627,12.64232 -15.9851,15.66732 -7.04204,3.409 -16.75552,3.51008 -19.74613,0.20549 z M 471.59277,362.5185 c -6.43959,-3.74621 -4.92364,-13.49592 3.47483,-22.34798 8.15631,-8.59683 23.03537,-12.28481 29.96908,-7.42825 4.18147,2.92881 3.97021,10.32815 -0.47813,16.74711 -7.48613,10.80248 -24.93721,17.69971 -32.96578,13.02912 z m 463.22974,-1.36543 c -3.01735,-1.13807 -3.14467,-1.65773 -2.52571,-10.30855 0.72237,-10.09603 4.82379,-19.17977 12.38913,-27.43921 5.13702,-5.60831 9.07462,-6.0278 12.17435,-1.29701 1.99643,3.04694 2.05562,4.232 0.51612,10.33334 -1.86609,7.39565 -7.77773,19.76691 -11.66071,24.40231 -3.54914,4.23687 -7.2272,5.69184 -10.89318,4.30912 z m -590.20266,-3.89552 c -4.03542,-6.52944 16.57896,-30.59088 26.20841,-30.59088 4.59801,0 5.80218,2.2215 4.61999,8.52312 -2.07065,11.03753 -15.26591,23.47688 -24.90352,23.47688 -2.7797,0 -5.4459,-0.6341 -5.92488,-1.40912 z m 708.06895,-3.89982 c -1.9004,-2.09993 -2.2154,-3.9251 -1.5346,-8.89205 1.0137,-7.39611 6.3922,-17.19503 9.9486,-18.12503 6.6841,-1.74794 9.0949,4.44752 6.142,15.78437 -3.2073,12.31349 -9.3135,17.02561 -14.556,11.23271 z m -525.25857,-10.118 c -1.77356,-1.77356 -2.20727,-3.70113 -1.69392,-7.52842 1.87449,-13.97538 23.17628,-25.91988 32.46997,-18.2068 4.94218,4.10164 -0.61759,17.0011 -10.29884,23.89475 -5.85581,4.16971 -17.13428,5.1834 -20.47721,1.84047 z m 216.37075,0.65427 c -5.08111,-1.95632 -7.2508,-7.85589 -4.69169,-12.75708 2.52152,-4.8292 8.27002,-10.18219 14.09336,-13.12372 3.35843,-1.69644 6.8808,-2.15873 13.56873,-1.78083 10.0249,0.56646 14.56199,3.25753 14.56199,8.63711 0,4.20909 -8.74067,13.66593 -15.33333,16.58967 -6.77729,3.00561 -17.62607,4.19553 -22.19906,2.43485 z m -150.00702,-3.08349 c -5.10728,-2.31693 -6.48172,-6.01978 -4.48272,-12.07682 3.4673,-10.50601 18.24487,-18.10277 31.38212,-16.13272 10.34016,1.5506 12.79682,8.6994 5.87518,17.09656 -8.43776,10.23646 -23.47069,15.33372 -32.77458,11.11298 z m 704.53944,0.41602 c -6.7532,-3.93338 3.1992,-20.77166 15.2535,-25.80702 4.4611,-1.86348 5.1186,-1.85697 7.0453,0.0698 2.5962,2.59623 1.7554,5.77179 -3.5977,13.58655 -3.4586,5.04912 -13.3544,13.66248 -15.5678,13.55029 -0.44,-0.0223 -1.85,-0.65211 -3.1333,-1.39959 z M 854.79758,337.0269 c -7.24024,-3.82889 -7.04953,-9.61259 0.57588,-17.46421 8.60752,-8.86289 20.22076,-12.85184 29.85975,-10.25633 6.22822,1.67709 7.75276,4.91949 4.90364,10.42908 -5.90662,11.42215 -26.95918,21.72314 -35.33927,17.29146 z m -171.52482,-6.96629 c -2.30465,-2.30465 -3.27273,-4.74357 -3.27273,-8.24512 0,-4.19434 1.00254,-5.93871 6.40706,-11.14797 7.35646,-7.09069 15.59097,-10.05693 24.98069,-8.99857 8.00004,0.90172 11.27892,3.98358 11.27892,10.60119 0,4.43186 -0.94858,6.13876 -6.49238,11.68256 -7.05664,7.05663 -12.76891,9.36103 -23.23489,9.3732 -5.01695,0.006 -7.09875,-0.69738 -9.66667,-3.26529 z m 410.66654,-0.31182 c -4.9773,-4.97734 0.5099,-22.86463 9.8924,-32.2471 6.6036,-6.60363 11.2354,-8.09264 14.8887,-4.7864 5.7551,5.20825 0.9477,22.15465 -9.3012,32.78772 -6.7764,7.03045 -11.4212,8.30441 -15.4799,4.24578 z m -68.9976,-4.11159 C 1017.79,317.7346 1030.3548,296 1042.075,296 c 3.6635,0 4.9704,0.70574 6.1659,3.3294 5.0577,11.1005 -15.7744,34.62263 -23.2992,26.3078 z m 215.0567,-0.97256 c -2.8584,-3.44417 -1.0097,-15.72862 3.3038,-21.95298 9.9469,-14.35329 20.0841,-2.56781 11.8371,13.76164 -4.704,9.314 -11.2638,12.86294 -15.1409,8.19134 z m -838.99838,-3.43811 c -1.44108,-0.83934 -2.33333,-2.96574 -2.33333,-5.5607 0,-3.36591 1.53807,-5.6974 7.73253,-11.72132 11.95171,-11.62268 25.68951,-15.36772 27.65444,-7.53883 3.05861,12.18648 -22.19151,31.14747 -33.05364,24.82085 z m 56.6353,-1.27968 c -3.84144,-1.5428 -5.57987,-6.15772 -4.17062,-11.0715 3.72528,-12.98927 23.77081,-23.75468 36.44397,-19.57216 6.06646,2.00211 6.97273,5.36752 3.42112,12.70418 -3.41367,7.05169 -10.90032,13.32571 -20.04971,16.8022 -7.22354,2.74473 -10.9651,3.01672 -15.64476,1.13728 z m 519.0842,-1.22184 c -1.61243,-1.78171 -2.3605,-4.77501 -2.3605,-9.44523 0,-9.93768 5.76988,-20.64986 14.15504,-26.27978 11.42932,-7.67382 16.30444,-5.27532 15.15024,7.45367 -0.8351,9.20969 -4.558,17.01585 -11.92879,25.01221 -6.06275,6.57731 -11.03619,7.65677 -15.01599,3.25913 z M 812.1589,306.82553 c -5.46621,-5.46621 -2.11833,-12.94613 8.06597,-18.02118 5.72162,-2.8512 8.83105,-3.47102 17.41312,-3.47102 6.12643,0 12.36792,0.80232 15.09029,1.9398 9.35693,3.90958 7.3974,8.89326 -6.3372,16.11743 -8.41637,4.42687 -11.18259,5.19191 -20.56551,5.68768 -9.69808,0.51242 -11.13905,0.27491 -13.66667,-2.25271 z M 565.50833,297.5083 c -1.5629,-1.5629 -2.84164,-4.03217 -2.84164,-5.48726 0,-7.12625 15.62614,-16.02104 28.14534,-16.02104 7.32638,0 15.25754,2.46354 18.1223,5.62907 2.07617,2.29413 2.11216,2.91592 0.35481,6.12871 -1.12124,2.04985 -5.22825,5.21163 -9.62495,7.40976 -6.15167,3.07553 -10.00851,3.96759 -19.49171,4.5083 -10.78226,0.61478 -12.07256,0.42406 -14.66415,-2.16754 z m 84.4917,0.24623 c -5.14507,-0.82874 -8.66667,-4.02498 -8.66667,-7.86594 0,-7.00924 11.36275,-12.62621 25.6933,-12.70103 16.57627,-0.0865 27.02751,6.43187 19.75475,12.32099 -7.00427,5.67172 -26.13563,9.96076 -36.78138,8.24598 z m 91.33334,-5.9126 c -6.40289,-1.94234 -8.20365,-3.71093 -7.73408,-7.59594 0.72281,-5.9802 6.37317,-8.69332 19.39459,-9.31265 13.56765,-0.6453 21.92503,1.19766 26.59124,5.86387 3.97365,3.97364 3.54899,5.72432 -2.20349,9.08395 -5.2085,3.04193 -28.33714,4.29996 -36.04826,1.96077 z m -223.00052,-2.2627 c -4.11706,-0.47503 -6.87957,-4.42279 -5.69862,-8.14362 3.11185,-9.80457 32.38461,-16.16402 36.7612,-7.9863 1.19283,2.22882 0.76386,3.28811 -2.60651,6.43651 -7.31914,6.83711 -18.93053,10.79246 -28.45607,9.69341 z m 754.50155,-4.93541 c -3.4039,-3.40386 -2.6446,-11.10192 1.8718,-18.97715 3.1287,-5.45551 4.7372,-7 7.2901,-7 4.9926,0 7.8441,5.30471 6.7551,12.56655 -1.7528,11.68873 -10.3747,18.95294 -15.917,13.4106 z m 115.164,0.0208 c -2.8584,-3.44417 -1.0097,-15.72862 3.3038,-21.95298 9.9469,-14.35329 20.0842,-2.56781 11.8371,13.76164 -4.704,9.314 -11.2638,12.86294 -15.1409,8.19134 z m -321.404,-2.0703 c -4.4993,-4.49925 -2.6168,-13.49855 4.8794,-23.32655 4.1034,-5.37982 13.3378,-11.26779 17.672,-11.26779 7.1904,0 6.7236,13.21802 -0.8622,24.41701 -4.3078,6.35948 -8.7034,9.80496 -14.6892,11.51387 -3.6523,1.0427 -4.8493,0.81414 -7,-1.33654 z m -46.4525,-3.66255 c -1.5942,-2.97883 2.0388,-11.58268 6.7005,-15.86815 4.5889,-4.21868 12.1802,-7.06364 18.8482,-7.06364 10.1534,0 11.7292,4.94503 4.2232,13.25319 -8.983,9.94309 -26.5704,15.66062 -29.7719,9.6786 z m 129.5647,-3.03162 c -3.9822,-1.50412 -5.0612,-6.72222 -3.153,-15.24874 3.0083,-13.44246 12.726,-23.78903 18.1304,-19.30373 4.2962,3.56553 1.552,20.56138 -4.7486,29.40977 -3.5974,5.05203 -6.5451,6.53406 -10.2288,5.1427 z m -37.8216,-30.20284 c -2.9765,-7.82881 3.2075,-22.23669 13.5262,-31.51408 14.5541,-13.08541 20.1587,-3.51683 10.2703,17.53415 -6.833,14.54652 -20.5233,22.58923 -23.7965,13.97993 z m 308.9494,-1.05351 c -3.4039,-3.40386 -2.6446,-11.10192 1.8718,-18.97715 3.1287,-5.45551 4.7372,-7 7.2901,-7 4.9926,0 7.8441,5.30471 6.7551,12.56655 -1.7528,11.68873 -10.3747,18.95294 -15.917,13.4106 z M 1240.324,242.4573 c -4.1835,-4.18352 -0.5034,-19.60085 6.1053,-25.57748 3.5271,-3.18978 7.9475,-1.83254 9.1094,2.79698 1.016,4.04796 -1.3219,13.86202 -4.6825,19.65653 -2.5194,4.34399 -7.7582,5.8979 -10.5322,3.12397 z m 115.0676,-0.24985 c -3.7306,-2.72788 -1.82,-8.42172 3.1957,-9.52333 7.7458,-1.70128 12.3194,4.27214 6.9744,9.10923 -2.9522,2.67174 -6.8647,2.83105 -10.1701,0.4141 z m -152.8093,-6.65826 c -6.6375,-3.29239 -4.3423,-19.45912 4.3965,-30.96765 8.7215,-11.48577 15.1653,-10.41384 14.8527,2.47075 -0.1864,7.67885 -2.8016,14.97923 -8.1297,22.69407 -4.5198,6.54437 -7.0074,7.84257 -11.1195,5.80283 z m 254.0702,-10.23159 c -1.9447,-2.1489 -2.2093,-3.3358 -1.1286,-5.06231 3.4409,-5.49693 17.1006,-1.99261 16.2245,4.16231 -0.3472,2.43966 -1.4061,2.98033 -6.4853,3.31138 -4.7978,0.31271 -6.6028,-0.19276 -8.6106,-2.41138 z m 105.1297,-2.73123 c -4.1665,-2.66915 -7.169,-6.37794 -8.84,-10.9197 -1.5783,-4.29004 2.1114,-2.44055 8.6363,4.32891 8.6491,8.97329 8.7446,12.06221 0.2037,6.59079 z m -197.4641,-0.80784 c -7.9733,-3.21223 -1.5183,-15.96092 10.6573,-21.04823 11.4671,-4.79125 27.448,-1.08303 23.9003,5.54586 -2.2567,4.21674 -13.1148,10.81798 -22.6262,13.75575 -8.9917,2.77725 -9.2715,2.81821 -11.9314,1.74662 z m -31.3717,-6.68323 c 1.2806,-3.77151 6.0178,-11.12761 11.4611,-17.79732 5.1031,-6.25278 11.8249,-15.84583 14.9372,-21.31788 4.1038,-7.21522 7.4098,-11.1558 12.0306,-14.34016 6.6681,-4.59526 8.2597,-4.81481 10.3925,-1.43362 2.4457,3.87715 -0.5212,9.18363 -11.7716,21.05502 -6.2041,6.54642 -14.5098,16.8907 -18.4571,22.98729 -8.2998,12.81886 -10.6153,15.11669 -16.4906,16.36494 l -4.2849,0.91036 z m 155.7959,-2.05864 c -2.638,-3.76632 -2.6316,-5.87133 0.021,-6.88923 4.0139,-1.54026 8.5701,2.69247 8.5701,7.96162 0,3.02924 -6.266,2.24707 -8.5911,-1.07239 z m -43.4089,-6.73012 c -2.4217,-1.24862 -3.3333,-2.80178 -3.3333,-5.67925 v -3.96062 l 8.28,0.12586 c 9.4408,0.14351 12.7064,2.05465 12.1207,7.09334 -0.365,3.13972 -0.9958,3.47834 -7.0674,3.79338 -3.6667,0.19026 -8.1667,-0.42746 -10,-1.37271 z m -285.4336,-5.07347 c -3.4427,-3.44269 -2.673,-10.46515 2.2892,-20.88564 3.7157,-7.80273 14.1225,-19.0141 17.6497,-19.0141 11.44,0 2.7218,31.41317 -11.0868,39.94736 -5.4194,3.34938 -5.4553,3.34919 -8.8521,-0.0476 z m 256.7669,-3.83984 c -6.0471,-1.11754 -6.2534,-6.72525 -0.4097,-11.13617 4.8021,-3.62468 13.5435,-6.50577 16.4061,-5.40729 6.6666,2.55822 -0.022,14.50437 -9.3297,16.66397 -1.4667,0.34029 -4.4667,0.28606 -6.6667,-0.12051 z m 64.9032,-27.23032 c -10.5145,-10.77225 -12.157,-13.23061 -9.8092,-14.68166 1.8215,-1.12575 26.1908,22.44003 25.0739,24.24718 -1.9158,3.09971 -4.4565,1.50754 -15.2647,-9.56552 z m -89.4487,6.06336 c -3.9392,-7.36037 12.8576,-20.10237 22.1386,-16.79431 6.1401,2.18855 6.8618,5.2407 2.3695,10.021 -7.6399,8.12973 -21.7023,12.01613 -24.5081,6.77331 z m -140.1109,-1.54935 c -2.0106,-2.01066 -2.4896,-3.66601 -1.8413,-6.36389 2.5077,-10.43645 10.8882,-20.64104 14.891,-18.13224 6.1654,3.86424 0.9427,21.17954 -7.7995,25.8582 -1.968,1.05328 -3.1385,0.74964 -5.2502,-1.36207 z m 75.4248,1.48762 c -1.345,-2.17621 3.1629,-14.30184 6.473,-17.41151 4.4284,-4.16021 7.4253,-2.83986 7.4253,3.27134 0,8.17668 -5.2026,15.30896 -11.167,15.30896 -1.1049,0 -2.334,-0.52595 -2.7313,-1.16879 z m 130.0364,-6.21093 c -4.5493,-5.18141 -5.1948,-7.92947 -2.1381,-9.10245 4.9996,-1.91852 11.3333,3.30987 11.3333,9.35549 0,6.05966 -3.743,5.95665 -9.1952,-0.25304 z M 1228.2667,158.4 c -2.7361,-2.73614 -1.7668,-9.61479 2.2466,-15.94333 4.1796,-6.59061 8.0255,-8.48579 11.7273,-5.77899 2.1346,1.56082 2.2078,2.48717 0.7536,9.52564 -2.2418,10.85016 -9.808,17.11616 -14.7275,12.19668 z m -26.0444,-4.62222 c -2.2744,-2.2744 -0.6732,-12.11016 3.0195,-18.54823 4.0663,-7.08951 12.2484,-15.22955 15.3081,-15.22955 8.3396,0 4.079,18.15598 -6.9618,29.66667 -4.4045,4.59197 -9.1636,6.31335 -11.3658,4.11111 z M 1537.7263,153 c -2.2935,-3.01687 -5.94,-14.24212 -5.0791,-15.63508 1.3141,-2.12626 5.3966,-1.60756 7.6221,0.96841 2.2373,2.58961 5.2876,13.55968 4.2412,15.25287 -1.0245,1.65765 -5.3635,1.28274 -6.7842,-0.5862 z m -179.7731,-1.07578 c -2.6813,-4.33843 7.6954,-18.59089 13.5353,-18.59089 5.4113,0 4.1145,5.77997 -3.0042,13.39046 -6.138,6.56197 -8.8591,7.90572 -10.5311,5.20043 z m 36.0395,-10.60282 c -1.4376,-2.32606 0.6332,-6.34266 5.4509,-10.57262 3.5278,-3.09746 5.9346,-4.08211 9.978,-4.08211 6.3069,0 7.8905,2.46567 4.7056,7.32647 -3.9794,6.07336 -17.801,11.10394 -20.1345,7.32826 z m 58.4297,-12.81075 c -2.7099,-7.06192 8.0907,-15.17732 20.1992,-15.17732 8.2332,0 12.7824,2.64014 10.6232,6.16526 -1.1694,1.90927 -25.1306,11.16808 -28.9022,11.16808 -0.6011,0 -1.4652,-0.97021 -1.9202,-2.15602 z m 46.3411,-4.02379 C 1495.3049,120.08997 1495.1463,116 1498.4343,116 c 3.273,0 8.2324,5.47361 8.2324,9.08593 0,4.11756 -4.4589,3.77956 -7.9032,-0.59907 z m -154.7197,-5.63336 c -5.8015,-11.91687 -10.5605,-26.687471 -12.0105,-37.277063 -2.1199,-15.483066 1.1174,-34.00078 7.6691,-43.868359 l 4.6752,-7.041411 8.9588,0 c 8.0857,0 9.686,0.478852 16.4199,4.913509 8.6394,5.689454 11.6811,11.38938 14.1942,26.5987 l 1.5717,9.512209 -11.3814,17.154457 c -6.2598,9.434952 -14.9148,21.438538 -19.2333,26.674628 l -7.8517,9.52017 z m 79.164,-0.87938 c -1.7915,-7.13777 4.4826,-15.30745 11.7556,-15.30745 3.0806,0 3.7033,0.57168 3.7033,3.39954 0,10.35062 -13.282,20.58163 -15.4589,11.90791 z m -28.5411,-2.63695 c 0,-4.499 8.6708,-14.00384 12.7749,-14.00384 1.7985,0 3.7579,1.17071 4.6033,2.75039 1.2759,2.38405 0.6839,3.53842 -4.4443,8.66667 -7.0073,7.0073 -12.9339,8.19261 -12.9339,2.58678 z m -152.4444,-2.89273 c -3.851,-3.85098 3.5032,-17.567493 13.5195,-25.215493 13.1586,-10.047289 20.9655,-6.63799 12.7891,5.584991 -8.9912,13.440962 -22.4533,23.485862 -26.3086,19.630502 z m 246.2187,-4.36037 c -7.9583,-3.61335 -10.6929,-9.641641 -6.3457,-13.988832 3.0419,-3.041911 5.2245,-2.611096 10.576,2.087621 5.8738,5.157271 7.7261,8.464781 6.6461,11.867501 -1.0341,3.25814 -3.7562,3.26657 -10.8764,0.0337 z m 40.0924,-8.617403 c -3.7111,-3.711097 -4.5543,-5.31232 -3.4036,-6.463042 1.1507,-1.150721 2.4135,-0.869876 5.0969,1.13358 5.1123,3.816875 6.7415,6.761295 4.8101,8.692765 -1.2045,1.20448 -2.7187,0.42142 -6.5034,-3.363303 z m -128.3285,-6.553148 c -0.9095,-1.095975 -0.105,-4.450611 2.5727,-10.727545 2.1429,-5.023099 4.8472,-12.404672 6.0097,-16.403496 1.7742,-6.103011 2.5622,-7.20463 4.9068,-6.859866 6.8547,1.007971 4.6273,14.379508 -4.6634,27.994314 -4.7921,7.022392 -6.827,8.40499 -8.8258,5.996593 z m 60.4618,0.788335 c -4.2587,-1.046816 -6,-3.094466 -6,-7.055795 0,-3.986071 1.9734,-5.312726 7.9024,-5.312726 6.8964,0 11.0486,8.99355 5.5186,11.953089 -2.7065,1.448468 -3.1233,1.471805 -7.421,0.415432 z m 40,-4.182906 c -2.2,-1.358761 -5.1316,-3.743871 -6.5148,-5.300245 -2.2804,-2.565978 -2.3104,-2.908215 -0.322,-3.671246 2.4101,-0.924831 14.3454,7.232139 13.709,9.36921 -0.6673,2.241316 -2.799,2.117949 -6.8722,-0.397719 z m -69.0757,-5.172401 c -3.603,-0.854358 -5.3081,-6.516021 -3.2534,-10.802926 C 1429.6957,70.710024 1430.9674,70 1434.6847,70 c 4.6015,0 4.6487,0.05928 4.6487,5.837371 0,6.295493 -3.0308,9.626412 -7.7424,8.509176 z m 37.1637,-5.958908 c -2.6435,-3.774139 -0.8673,-5.583786 4.3548,-4.436819 7.7657,1.705627 8.9608,7.382513 1.5542,7.382513 -2.4557,0 -4.5915,-1.064747 -5.909,-2.945694 z m 23.6657,-2.523474 c -4.8974,-1.417049 -13.6262,-9.462193 -11.1587,-10.284706 3.072,-1.023991 13.4714,2.801416 19.749,7.264659 l 6.3142,4.489215 -5.3291,-0.120251 c -2.931,-0.06614 -7.2399,-0.67315 -9.5754,-1.348917 z m -39.7537,-13.502687 c -11.2105,-3.869505 -13.0802,-7.485833 -4.751,-9.189347 5.1597,-1.055254 20.0844,3.460548 20.0844,6.076958 0,1.931991 -4.291,6.13443 -6.105,5.978981 -0.6756,-0.0579 -4.8284,-1.347861 -9.2284,-2.866592 z M 1418.4776,48.73277 c -9.0391,-6.142229 -7.96,-11.862282 1.6401,-8.693959 7.0924,2.340701 11.8824,6.1265 11.8824,9.391296 0,3.774765 -7.5112,3.387422 -13.5225,-0.697337 z M 702.74055,1247.9605 c 6.37803,-3.4134 9.04405,-19.7397 5.16643,-31.6384 -3.97929,-12.2107 -16.43918,-22.9888 -26.57587,-22.9888 h -4.30804 l 4.97493,5.5067 c 10.08187,11.1594 14.59741,27.5623 11.33329,41.1687 -1.39,5.7941 -1.36216,7.1529 0.16639,8.1211 2.47032,1.5647 6.12804,1.4977 9.24287,-0.1693 z m -157.09467,-33.3487 c 3.66469,-4.5257 2.66408,-14.4201 -2.56876,-25.4007 -2.23952,-4.6994 -4.80842,-10.8364 -5.70868,-13.6378 -0.90026,-2.8013 -2.32644,-5.2745 -3.16929,-5.4959 -16.34744,-4.294 -16.81145,-4.5758 -22.78608,-13.8403 -12.38243,-19.2007 -21.1947,-40.7637 -26.14378,-63.9718 -3.59308,-16.8493 -4.96215,-55.1972 -2.67337,-74.8817 2.66545,-22.92429 3.03967,-37.01152 1.12731,-42.43771 -0.94776,-2.68924 -7.78923,-17.23062 -15.20325,-32.31418 -7.41403,-15.08357 -17.84685,-37.59625 -23.18405,-50.02819 -5.33721,-12.43194 -10.13937,-23.0917 -10.67147,-23.68837 -1.04744,-1.17452 -2.09325,7.17319 -3.39322,27.08485 -0.84827,12.99303 -4.82291,34.43098 -10.75333,58 -6.09474,24.22204 -15.38172,53.29 -17.89279,56.0039 -1.35906,1.4689 -4.15569,6.2689 -6.21473,10.6667 -3.23544,6.9105 -3.74289,9.6253 -3.73768,19.9961 0.006,12.6965 3.73525,26.9989 8.86434,34 1.34313,1.8333 2.83837,6.3333 3.32276,10 1.33855,10.1324 36.4508,95.3955 46.01438,111.7367 11.67151,19.943 11.94572,20.0792 42.3939,21.0596 13.60257,0.438 30.36017,0.7069 37.23913,0.5975 11.52578,-0.1833 12.71368,-0.454 15.13866,-3.4487 z m -47.8315,-20.6148 c -2.4279,-6.327 4.16493,-11.941 13.02754,-11.0933 3.99366,0.382 4.53801,0.9134 4.91162,4.7947 0.37473,3.893 -0.0894,4.578 -4.29051,6.3333 -6.12455,2.559 -12.65972,2.5424 -13.64865,-0.035 z m -33.37166,-26.6231 c -7.01718,-4.9488 -10.61763,-15.909 -6.38112,-19.425 2.81436,-2.3357 7.97632,1.5577 13.19695,9.9539 3.0318,4.8759 3.60775,6.8193 2.5305,8.5383 -1.88638,3.0102 -5.84106,3.4048 -9.34633,0.9328 z m -28.15206,-52.1204 c -3.56649,-2.4981 -8.29064,-11.2896 -8.29064,-15.4287 0,-1.6215 0.9576,-4.0063 2.128,-5.2996 3.2501,-3.5913 7.59038,-0.8232 12.03766,7.6773 3.51755,6.7234 3.64657,7.4889 1.81087,10.7447 -2.51806,4.4661 -3.97719,4.904 -7.68589,2.3063 z m 15.94178,-37.0061 c -3.24472,-3.4538 -4.02,-12.5932 -1.29909,-15.3141 2.48014,-2.4801 6.04078,-1.897 8.3244,1.3634 2.81717,4.022 2.79425,15.1422 -0.0334,16.2273 -3.24405,1.2449 -3.87733,1.0387 -6.99187,-2.2766 z m -25.41189,-29.688 c -2.93158,-3.7269 -3.84872,-12.8725 -1.64034,-16.3573 3.60947,-5.6956 13.85461,8.408 11.33479,15.6036 -1.71565,4.8993 -6.16165,5.245 -9.69445,0.7537 z m 20.1128,-24.8261 c -2.06995,-2.0699 -2.06995,-10.73 0,-12.8 5.7031,-5.7031 13.16478,4.076 9.01976,11.821 -1.54284,2.8828 -6.57026,3.4285 -9.01976,0.979 z m -4.6,-46.03875 c -5.94108,-1.41758 0.59907,-12.4171 8.55113,-14.38166 4.63074,-1.14403 9.84537,3.49873 7.93627,7.06592 -2.9284,5.47175 -10.37244,8.7748 -16.4874,7.31574 z m 91.80105,175.97215 c -0.4093,-2.0167 -1.97696,-11.1667 -3.48369,-20.3334 -1.50673,-9.1666 -3.9571,-22.3666 -5.44527,-29.3333 -1.48817,-6.9667 -3.22528,-20.1667 -3.86024,-29.3333 -2.15388,-31.0946 -7.15977,-56.4615 -14.73466,-74.6667 -7.96915,-19.15273 -9.31746,-20.289 -9.0974,-7.66667 0.0799,4.58334 -0.8652,14.33337 -2.10024,21.66667 -3.20767,19.0463 -2.33115,59.0581 1.66816,76.1484 6.8157,29.1255 22.36886,61.3218 31.5568,65.3251 5.74008,2.5011 6.3314,2.3067 5.49654,-1.8068 z m 573.8657,-72.549 c 0,-4.5032 10.3459,-33.8208 16.3922,-46.451 8.2644,-17.2637 19.9277,-36.36094 39.1087,-64.03577 30.3841,-43.83894 46.9162,-72.10001 70.5666,-120.63093 23.0285,-47.25481 22.9791,-46.1056 1.05,-24.4247 -10.148,10.03308 -29.8509,28.07838 -43.7842,40.10066 -39.271,33.88469 -54.8922,52.11558 -67.2392,78.4721 -14.5515,31.06233 -20.1315,63.67414 -20.0506,117.18524 0.037,24.325 0.2567,27.0485 1.9989,24.7452 1.0766,-1.4235 1.9576,-3.6559 1.9576,-4.9608 z m 18.2222,-96.67326 c -1.5033,-1.50328 -0.9908,-6.80252 1.1834,-12.23639 2.4967,-6.23978 7.9414,-9.43247 10.9518,-6.42201 2.5175,2.5175 1.0883,11.53053 -2.5648,16.17471 -2.4871,3.16184 -7.5725,4.4816 -9.5704,2.48369 z m 24.7778,-45.32748 c -3.8276,-1.54444 -0.1695,-15.01701 4.7994,-17.6763 3.3968,-1.81793 7.7864,-1.85615 8.8857,-0.0774 1.3831,2.23789 -3.3423,14.47886 -6.4221,16.63599 -2.9404,2.05958 -4.3798,2.28108 -7.263,1.11768 z M 1098.6672,994 c 0.063,-6.09424 4.7983,-27.27065 8.6915,-38.86842 1.911,-5.69265 6.5313,-16.30123 10.2674,-23.57461 12.6799,-24.6852 28.1259,-42.4968 60.319,-69.55697 36.4057,-30.6011 44.4227,-37.96069 54.7886,-50.29542 25.6064,-30.47017 46.2034,-69.26707 59.2349,-111.57631 2.3499,-7.62946 4.5825,-14.67946 4.9613,-15.66667 1.7677,-4.60658 -2.5589,-0.85864 -9.8568,8.5384 -11.5315,14.84854 -31.0294,35.03774 -43.5777,45.1227 -14.9287,11.99809 -26.7643,18.89652 -66.162,38.5629 -38.6406,19.28844 -48.631,25.33673 -59.0337,35.73939 -6.653,6.65301 -15.633,18.22965 -15.633,20.15345 0,0.42055 6.75,-2.78758 15,-7.12918 8.25,-4.34159 27,-12.19761 41.6667,-17.45781 28.0766,-10.06968 52.4126,-20.93649 62.6304,-27.96647 6.5503,-4.50677 10.8743,-4.81685 13.2334,-0.94898 1.216,1.99366 0.7442,3.06316 -2.7345,6.199 -11.1175,10.0217 -37.0498,22.30579 -71.3867,33.81579 -38.7323,12.98333 -54.9869,23.28568 -64.545,40.90921 -2.3937,4.41356 -2.5183,8.06547 -2.2972,67.33333 0.2332,62.50315 0.8397,76.27907 3.1946,72.55853 0.6586,-1.04052 1.2161,-3.69186 1.2388,-5.89186 z m 14.8177,-120.54481 c -2.3304,-1.47584 -2.4495,-11.35291 -0.1701,-14.09949 2.1161,-2.54968 7.1983,-2.61737 9.268,-0.12344 2.2565,2.71883 0.3726,11.08102 -3.0339,13.46702 -3.2558,2.28042 -3.5908,2.32218 -6.064,0.75591 z m 45.77,-26.04658 c -2.3832,-1.77228 -2.4298,-2.21068 -0.5882,-5.53496 2.8066,-5.06619 6.0686,-6.9016 9,-5.06399 3.2298,2.02461 3.6708,6.90585 0.9005,9.96696 -2.7587,3.04837 -5.7867,3.25386 -9.3123,0.63199 z M 624.63682,834.15814 c 5.82407,-12.78008 12.55254,-33.60607 19.38801,-60.00985 9.98532,-38.57093 16.42894,-50.66171 32.78541,-61.51853 l 7.55131,-5.01226 -3.18076,-2.45506 c -6.03845,-4.66076 -23.48221,-13.1012 -31.2663,-15.1287 C 645.62006,688.91518 638.65337,688 634.43296,688 c -6.62434,0 -8.29618,0.54674 -12.22797,3.9989 -7.11073,6.24331 -7.6618,10.6401 -6.19976,49.46607 0.70144,18.6276 1.28723,49.31836 1.30174,68.2017 0.0179,23.21547 0.48272,34.33333 1.43558,34.33333 0.77506,0 3.42748,-4.42884 5.89427,-9.84186 z M 1545.9926,351.73136 c 15.5283,-3.9156 27.3408,-16.47245 27.3408,-29.06371 0,-5.41479 -2.0839,-5.98211 -12.9414,-3.52319 -4.9822,1.12833 -15.9586,2.73839 -24.3919,3.57792 -25.186,2.50723 -37.3334,6.40409 -37.3334,11.97651 0,1.45057 2.4038,4.97014 5.3417,7.82126 11.4539,11.11569 23.7409,13.81141 41.9842,9.21121 z m 53.9609,-51.65877 c 5.2296,-8.14965 11.0095,-21.40592 9.3333,-21.40592 -2.4588,0 -13.4712,11.13451 -16.0907,16.26913 -1.4186,2.78062 -2.9527,7.90759 -3.4092,11.39327 l -0.8301,6.3376 3.5472,-3.25643 c 1.951,-1.79103 5.3032,-5.99298 7.4495,-9.33765 z m -81.7442,-141.04132 c -1.8677,-11.50976 -9.7756,-16.71421 -25.6791,-16.90027 -6.1585,-0.072 -11.1949,0.169 -11.1921,0.53567 0.01,1.27949 5.631,10.02489 8.4686,13.17589 4.5079,5.00579 12.6304,8.09553 21.3678,8.12816 l 7.8412,0.0293 z m -18.8759,-0.17868 c -8.483,-5.23993 -10.7931,-10.80798 -5.7908,-13.95791 5.3395,-3.36226 19.7908,5.26227 19.7908,11.81115 0,5.12289 -7.3558,6.25083 -14,2.14676 z m 4.0315,-111.264327 c 1.21,-8.069347 0.3738,-13.075378 -2.4703,-14.787114 -2.0518,-1.234957 -3.1623,-0.639358 -7,3.754331 -6.0502,6.926934 -5.9394,10.436635 0.4388,13.891184 7.1396,3.866965 8.067,3.573474 9.0315,-2.858401 z"
       id="path1" />
  </g>
</svg>
